<svg width="53" height="117" viewBox="0 0 53 117" fill="none" xmlns="http://www.w3.org/2000/svg">
<path d="M31.5753 115.543C31.8754 116.606 32.9804 117.225 34.0435 116.925L51.3662 112.034C52.4292 111.733 53.0476 110.628 52.7475 109.565C52.4473 108.502 51.3423 107.884 50.2793 108.184L34.8813 112.532L30.5336 97.1338C30.2335 96.0708 29.1284 95.4524 28.0654 95.7525C27.0024 96.0527 26.384 97.1577 26.6841 98.2207L31.5753 115.543ZM2.79796 0.166083C1.78512 -0.274621 0.606786 0.189191 0.166083 1.20204C-0.274621 2.21488 0.189191 3.39321 1.20204 3.83392L2.79796 0.166083ZM35.2453 115.977C40.4437 106.688 49.1023 85.1921 48.1232 62.2896C47.6321 50.8022 44.7128 38.906 37.6623 28.0366C30.6052 17.1571 19.4873 7.42787 2.79796 0.166083L1.20204 3.83392C17.2627 10.8221 27.7281 20.072 34.3065 30.2134C40.8913 40.3649 43.6596 51.5312 44.1268 62.4604C45.0644 84.3912 36.723 105.146 31.7547 114.023L35.2453 115.977Z" fill="#93BDED"/>
</svg>
