<svg width="212" height="46" viewBox="0 0 212 46" fill="none" xmlns="http://www.w3.org/2000/svg">
<path d="M32.6 33.256C31.192 33.256 29.976 32.9893 28.952 32.456C27.928 31.9227 27.128 31.1547 26.552 30.152C25.9973 29.128 25.72 27.9227 25.72 26.536V21.864C25.72 20.456 25.9973 19.2507 26.552 18.248C27.128 17.2453 27.928 16.4773 28.952 15.944C29.976 15.4107 31.192 15.144 32.6 15.144C34.008 15.144 35.224 15.4107 36.248 15.944C37.272 16.4773 38.0613 17.2453 38.616 18.248C39.192 19.2507 39.48 20.4453 39.48 21.832V26.536C39.48 27.9227 39.192 29.128 38.616 30.152C38.0613 31.1547 37.272 31.9227 36.248 32.456C35.224 32.9893 34.008 33.256 32.6 33.256ZM32.6 30.696C33.8587 30.696 34.84 30.344 35.544 29.64C36.248 28.936 36.6 27.9013 36.6 26.536V21.864C36.6 20.4987 36.248 19.464 35.544 18.76C34.84 18.056 33.8587 17.704 32.6 17.704C31.3627 17.704 30.3813 18.056 29.656 18.76C28.952 19.464 28.6 20.4987 28.6 21.864V26.536C28.6 27.9013 28.952 28.936 29.656 29.64C30.3813 30.344 31.3627 30.696 32.6 30.696ZM51.7875 33.256C50.3795 33.256 49.1635 32.9893 48.1395 32.456C47.1155 31.9227 46.3155 31.1547 45.7395 30.152C45.1848 29.128 44.9075 27.9227 44.9075 26.536V21.864C44.9075 20.456 45.1848 19.2507 45.7395 18.248C46.3155 17.2453 47.1155 16.4773 48.1395 15.944C49.1635 15.4107 50.3795 15.144 51.7875 15.144C53.1955 15.144 54.4115 15.4107 55.4355 15.944C56.4595 16.4773 57.2488 17.2453 57.8035 18.248C58.3795 19.2507 58.6675 20.4453 58.6675 21.832V26.536C58.6675 27.9227 58.3795 29.128 57.8035 30.152C57.2488 31.1547 56.4595 31.9227 55.4355 32.456C54.4115 32.9893 53.1955 33.256 51.7875 33.256ZM51.7875 30.696C53.0462 30.696 54.0275 30.344 54.7315 29.64C55.4355 28.936 55.7875 27.9013 55.7875 26.536V21.864C55.7875 20.4987 55.4355 19.464 54.7315 18.76C54.0275 18.056 53.0462 17.704 51.7875 17.704C50.5502 17.704 49.5688 18.056 48.8435 18.76C48.1395 19.464 47.7875 20.4987 47.7875 21.864V26.536C47.7875 27.9013 48.1395 28.936 48.8435 29.64C49.5688 30.344 50.5502 30.696 51.7875 30.696ZM70.975 33.256C69.567 33.256 68.351 32.9893 67.327 32.456C66.303 31.9227 65.503 31.1547 64.927 30.152C64.3723 29.128 64.095 27.9227 64.095 26.536V21.864C64.095 20.456 64.3723 19.2507 64.927 18.248C65.503 17.2453 66.303 16.4773 67.327 15.944C68.351 15.4107 69.567 15.144 70.975 15.144C72.383 15.144 73.599 15.4107 74.623 15.944C75.647 16.4773 76.4363 17.2453 76.991 18.248C77.567 19.2507 77.855 20.4453 77.855 21.832V26.536C77.855 27.9227 77.567 29.128 76.991 30.152C76.4363 31.1547 75.647 31.9227 74.623 32.456C73.599 32.9893 72.383 33.256 70.975 33.256ZM70.975 30.696C72.2337 30.696 73.215 30.344 73.919 29.64C74.623 28.936 74.975 27.9013 74.975 26.536V21.864C74.975 20.4987 74.623 19.464 73.919 18.76C73.215 18.056 72.2337 17.704 70.975 17.704C69.7377 17.704 68.7563 18.056 68.031 18.76C67.327 19.464 66.975 20.4987 66.975 21.864V26.536C66.975 27.9013 67.327 28.936 68.031 29.64C68.7563 30.344 69.7377 30.696 70.975 30.696ZM90.1625 33.256C88.7545 33.256 87.5385 32.9893 86.5145 32.456C85.4905 31.9227 84.6905 31.1547 84.1145 30.152C83.5598 29.128 83.2825 27.9227 83.2825 26.536V21.864C83.2825 20.456 83.5598 19.2507 84.1145 18.248C84.6905 17.2453 85.4905 16.4773 86.5145 15.944C87.5385 15.4107 88.7545 15.144 90.1625 15.144C91.5705 15.144 92.7865 15.4107 93.8105 15.944C94.8345 16.4773 95.6238 17.2453 96.1785 18.248C96.7545 19.2507 97.0425 20.4453 97.0425 21.832V26.536C97.0425 27.9227 96.7545 29.128 96.1785 30.152C95.6238 31.1547 94.8345 31.9227 93.8105 32.456C92.7865 32.9893 91.5705 33.256 90.1625 33.256ZM90.1625 30.696C91.4212 30.696 92.4025 30.344 93.1065 29.64C93.8105 28.936 94.1625 27.9013 94.1625 26.536V21.864C94.1625 20.4987 93.8105 19.464 93.1065 18.76C92.4025 18.056 91.4212 17.704 90.1625 17.704C88.9252 17.704 87.9438 18.056 87.2185 18.76C86.5145 19.464 86.1625 20.4987 86.1625 21.864V26.536C86.1625 27.9013 86.5145 28.936 87.2185 29.64C87.9438 30.344 88.9252 30.696 90.1625 30.696ZM109.35 33.256C107.942 33.256 106.726 32.9893 105.702 32.456C104.678 31.9227 103.878 31.1547 103.302 30.152C102.747 29.128 102.47 27.9227 102.47 26.536V21.864C102.47 20.456 102.747 19.2507 103.302 18.248C103.878 17.2453 104.678 16.4773 105.702 15.944C106.726 15.4107 107.942 15.144 109.35 15.144C110.758 15.144 111.974 15.4107 112.998 15.944C114.022 16.4773 114.811 17.2453 115.366 18.248C115.942 19.2507 116.23 20.4453 116.23 21.832V26.536C116.23 27.9227 115.942 29.128 115.366 30.152C114.811 31.1547 114.022 31.9227 112.998 32.456C111.974 32.9893 110.758 33.256 109.35 33.256ZM109.35 30.696C110.609 30.696 111.59 30.344 112.294 29.64C112.998 28.936 113.35 27.9013 113.35 26.536V21.864C113.35 20.4987 112.998 19.464 112.294 18.76C111.59 18.056 110.609 17.704 109.35 17.704C108.113 17.704 107.131 18.056 106.406 18.76C105.702 19.464 105.35 20.4987 105.35 21.864V26.536C105.35 27.9013 105.702 28.936 106.406 29.64C107.131 30.344 108.113 30.696 109.35 30.696ZM128.538 33.256C127.13 33.256 125.914 32.9893 124.89 32.456C123.866 31.9227 123.066 31.1547 122.49 30.152C121.935 29.128 121.658 27.9227 121.658 26.536V21.864C121.658 20.456 121.935 19.2507 122.49 18.248C123.066 17.2453 123.866 16.4773 124.89 15.944C125.914 15.4107 127.13 15.144 128.538 15.144C129.946 15.144 131.162 15.4107 132.186 15.944C133.21 16.4773 133.999 17.2453 134.554 18.248C135.13 19.2507 135.418 20.4453 135.418 21.832V26.536C135.418 27.9227 135.13 29.128 134.554 30.152C133.999 31.1547 133.21 31.9227 132.186 32.456C131.162 32.9893 129.946 33.256 128.538 33.256ZM128.538 30.696C129.796 30.696 130.778 30.344 131.482 29.64C132.186 28.936 132.538 27.9013 132.538 26.536V21.864C132.538 20.4987 132.186 19.464 131.482 18.76C130.778 18.056 129.796 17.704 128.538 17.704C127.3 17.704 126.319 18.056 125.594 18.76C124.89 19.464 124.538 20.4987 124.538 21.864V26.536C124.538 27.9013 124.89 28.936 125.594 29.64C126.319 30.344 127.3 30.696 128.538 30.696ZM147.725 33.256C146.317 33.256 145.101 32.9893 144.077 32.456C143.053 31.9227 142.253 31.1547 141.677 30.152C141.122 29.128 140.845 27.9227 140.845 26.536V21.864C140.845 20.456 141.122 19.2507 141.677 18.248C142.253 17.2453 143.053 16.4773 144.077 15.944C145.101 15.4107 146.317 15.144 147.725 15.144C149.133 15.144 150.349 15.4107 151.373 15.944C152.397 16.4773 153.186 17.2453 153.741 18.248C154.317 19.2507 154.605 20.4453 154.605 21.832V26.536C154.605 27.9227 154.317 29.128 153.741 30.152C153.186 31.1547 152.397 31.9227 151.373 32.456C150.349 32.9893 149.133 33.256 147.725 33.256ZM147.725 30.696C148.984 30.696 149.965 30.344 150.669 29.64C151.373 28.936 151.725 27.9013 151.725 26.536V21.864C151.725 20.4987 151.373 19.464 150.669 18.76C149.965 18.056 148.984 17.704 147.725 17.704C146.488 17.704 145.506 18.056 144.781 18.76C144.077 19.464 143.725 20.4987 143.725 21.864V26.536C143.725 27.9013 144.077 28.936 144.781 29.64C145.506 30.344 146.488 30.696 147.725 30.696ZM166.913 33.256C165.505 33.256 164.289 32.9893 163.265 32.456C162.241 31.9227 161.441 31.1547 160.865 30.152C160.31 29.128 160.033 27.9227 160.033 26.536V21.864C160.033 20.456 160.31 19.2507 160.865 18.248C161.441 17.2453 162.241 16.4773 163.265 15.944C164.289 15.4107 165.505 15.144 166.913 15.144C168.321 15.144 169.537 15.4107 170.561 15.944C171.585 16.4773 172.374 17.2453 172.929 18.248C173.505 19.2507 173.793 20.4453 173.793 21.832V26.536C173.793 27.9227 173.505 29.128 172.929 30.152C172.374 31.1547 171.585 31.9227 170.561 32.456C169.537 32.9893 168.321 33.256 166.913 33.256ZM166.913 30.696C168.171 30.696 169.153 30.344 169.857 29.64C170.561 28.936 170.913 27.9013 170.913 26.536V21.864C170.913 20.4987 170.561 19.464 169.857 18.76C169.153 18.056 168.171 17.704 166.913 17.704C165.675 17.704 164.694 18.056 163.969 18.76C163.265 19.464 162.913 20.4987 162.913 21.864V26.536C162.913 27.9013 163.265 28.936 163.969 29.64C164.694 30.344 165.675 30.696 166.913 30.696Z" fill="#5F85B1"/>
<mask id="path-2-outside-1_18_24" maskUnits="userSpaceOnUse" x="1" y="12" width="209" height="27" fill="black">
<rect fill="white" x="1" y="12" width="209" height="27"/>
<path d="M2.976 37V13.64H5.856V23.624H13.344V13.64H16.224V37H13.344V26.248H5.856V37H2.976ZM28.7875 37.256C27.3795 37.256 26.1635 36.9893 25.1395 36.456C24.1155 35.9227 23.3155 35.1547 22.7395 34.152C22.1848 33.128 21.9075 31.9227 21.9075 30.536V25.864C21.9075 24.456 22.1848 23.2507 22.7395 22.248C23.3155 21.2453 24.1155 20.4773 25.1395 19.944C26.1635 19.4107 27.3795 19.144 28.7875 19.144C30.1955 19.144 31.4115 19.4107 32.4355 19.944C33.4595 20.4773 34.2488 21.2453 34.8035 22.248C35.3795 23.2507 35.6675 24.4453 35.6675 25.832V30.536C35.6675 31.9227 35.3795 33.128 34.8035 34.152C34.2488 35.1547 33.4595 35.9227 32.4355 36.456C31.4115 36.9893 30.1955 37.256 28.7875 37.256ZM28.7875 34.696C30.0462 34.696 31.0275 34.344 31.7315 33.64C32.4355 32.936 32.7875 31.9013 32.7875 30.536V25.864C32.7875 24.4987 32.4355 23.464 31.7315 22.76C31.0275 22.056 30.0462 21.704 28.7875 21.704C27.5502 21.704 26.5688 22.056 25.8435 22.76C25.1395 23.464 24.7875 24.4987 24.7875 25.864V30.536C24.7875 31.9013 25.1395 32.936 25.8435 33.64C26.5688 34.344 27.5502 34.696 28.7875 34.696ZM47.975 37.256C46.567 37.256 45.351 36.9893 44.327 36.456C43.303 35.9227 42.503 35.1547 41.927 34.152C41.3723 33.128 41.095 31.9227 41.095 30.536V25.864C41.095 24.456 41.3723 23.2507 41.927 22.248C42.503 21.2453 43.303 20.4773 44.327 19.944C45.351 19.4107 46.567 19.144 47.975 19.144C49.383 19.144 50.599 19.4107 51.623 19.944C52.647 20.4773 53.4363 21.2453 53.991 22.248C54.567 23.2507 54.855 24.4453 54.855 25.832V30.536C54.855 31.9227 54.567 33.128 53.991 34.152C53.4363 35.1547 52.647 35.9227 51.623 36.456C50.599 36.9893 49.383 37.256 47.975 37.256ZM47.975 34.696C49.2337 34.696 50.215 34.344 50.919 33.64C51.623 32.936 51.975 31.9013 51.975 30.536V25.864C51.975 24.4987 51.623 23.464 50.919 22.76C50.215 22.056 49.2337 21.704 47.975 21.704C46.7377 21.704 45.7563 22.056 45.031 22.76C44.327 23.464 43.975 24.4987 43.975 25.864V30.536C43.975 31.9013 44.327 32.936 45.031 33.64C45.7563 34.344 46.7377 34.696 47.975 34.696ZM67.1625 37.256C65.7545 37.256 64.5385 36.9893 63.5145 36.456C62.4905 35.9227 61.6905 35.1547 61.1145 34.152C60.5598 33.128 60.2825 31.9227 60.2825 30.536V25.864C60.2825 24.456 60.5598 23.2507 61.1145 22.248C61.6905 21.2453 62.4905 20.4773 63.5145 19.944C64.5385 19.4107 65.7545 19.144 67.1625 19.144C68.5705 19.144 69.7865 19.4107 70.8105 19.944C71.8345 20.4773 72.6238 21.2453 73.1785 22.248C73.7545 23.2507 74.0425 24.4453 74.0425 25.832V30.536C74.0425 31.9227 73.7545 33.128 73.1785 34.152C72.6238 35.1547 71.8345 35.9227 70.8105 36.456C69.7865 36.9893 68.5705 37.256 67.1625 37.256ZM67.1625 34.696C68.4212 34.696 69.4025 34.344 70.1065 33.64C70.8105 32.936 71.1625 31.9013 71.1625 30.536V25.864C71.1625 24.4987 70.8105 23.464 70.1065 22.76C69.4025 22.056 68.4212 21.704 67.1625 21.704C65.9252 21.704 64.9438 22.056 64.2185 22.76C63.5145 23.464 63.1625 24.4987 63.1625 25.864V30.536C63.1625 31.9013 63.5145 32.936 64.2185 33.64C64.9438 34.344 65.9252 34.696 67.1625 34.696ZM86.35 37.256C84.942 37.256 83.726 36.9893 82.702 36.456C81.678 35.9227 80.878 35.1547 80.302 34.152C79.7473 33.128 79.47 31.9227 79.47 30.536V25.864C79.47 24.456 79.7473 23.2507 80.302 22.248C80.878 21.2453 81.678 20.4773 82.702 19.944C83.726 19.4107 84.942 19.144 86.35 19.144C87.758 19.144 88.974 19.4107 89.998 19.944C91.022 20.4773 91.8113 21.2453 92.366 22.248C92.942 23.2507 93.23 24.4453 93.23 25.832V30.536C93.23 31.9227 92.942 33.128 92.366 34.152C91.8113 35.1547 91.022 35.9227 89.998 36.456C88.974 36.9893 87.758 37.256 86.35 37.256ZM86.35 34.696C87.6087 34.696 88.59 34.344 89.294 33.64C89.998 32.936 90.35 31.9013 90.35 30.536V25.864C90.35 24.4987 89.998 23.464 89.294 22.76C88.59 22.056 87.6087 21.704 86.35 21.704C85.1127 21.704 84.1313 22.056 83.406 22.76C82.702 23.464 82.35 24.4987 82.35 25.864V30.536C82.35 31.9013 82.702 32.936 83.406 33.64C84.1313 34.344 85.1127 34.696 86.35 34.696ZM105.538 37.256C104.13 37.256 102.914 36.9893 101.89 36.456C100.866 35.9227 100.066 35.1547 99.4895 34.152C98.9348 33.128 98.6575 31.9227 98.6575 30.536V25.864C98.6575 24.456 98.9348 23.2507 99.4895 22.248C100.066 21.2453 100.866 20.4773 101.89 19.944C102.914 19.4107 104.13 19.144 105.538 19.144C106.946 19.144 108.162 19.4107 109.186 19.944C110.21 20.4773 110.999 21.2453 111.554 22.248C112.13 23.2507 112.418 24.4453 112.418 25.832V30.536C112.418 31.9227 112.13 33.128 111.554 34.152C110.999 35.1547 110.21 35.9227 109.186 36.456C108.162 36.9893 106.946 37.256 105.538 37.256ZM105.538 34.696C106.796 34.696 107.778 34.344 108.482 33.64C109.186 32.936 109.538 31.9013 109.538 30.536V25.864C109.538 24.4987 109.186 23.464 108.482 22.76C107.778 22.056 106.796 21.704 105.538 21.704C104.3 21.704 103.319 22.056 102.594 22.76C101.89 23.464 101.538 24.4987 101.538 25.864V30.536C101.538 31.9013 101.89 32.936 102.594 33.64C103.319 34.344 104.3 34.696 105.538 34.696ZM124.725 37.256C123.317 37.256 122.101 36.9893 121.077 36.456C120.053 35.9227 119.253 35.1547 118.677 34.152C118.122 33.128 117.845 31.9227 117.845 30.536V25.864C117.845 24.456 118.122 23.2507 118.677 22.248C119.253 21.2453 120.053 20.4773 121.077 19.944C122.101 19.4107 123.317 19.144 124.725 19.144C126.133 19.144 127.349 19.4107 128.373 19.944C129.397 20.4773 130.186 21.2453 130.741 22.248C131.317 23.2507 131.605 24.4453 131.605 25.832V30.536C131.605 31.9227 131.317 33.128 130.741 34.152C130.186 35.1547 129.397 35.9227 128.373 36.456C127.349 36.9893 126.133 37.256 124.725 37.256ZM124.725 34.696C125.984 34.696 126.965 34.344 127.669 33.64C128.373 32.936 128.725 31.9013 128.725 30.536V25.864C128.725 24.4987 128.373 23.464 127.669 22.76C126.965 22.056 125.984 21.704 124.725 21.704C123.488 21.704 122.506 22.056 121.781 22.76C121.077 23.464 120.725 24.4987 120.725 25.864V30.536C120.725 31.9013 121.077 32.936 121.781 33.64C122.506 34.344 123.488 34.696 124.725 34.696ZM143.913 37.256C142.505 37.256 141.289 36.9893 140.265 36.456C139.241 35.9227 138.441 35.1547 137.865 34.152C137.31 33.128 137.033 31.9227 137.033 30.536V25.864C137.033 24.456 137.31 23.2507 137.865 22.248C138.441 21.2453 139.241 20.4773 140.265 19.944C141.289 19.4107 142.505 19.144 143.913 19.144C145.321 19.144 146.537 19.4107 147.561 19.944C148.585 20.4773 149.374 21.2453 149.929 22.248C150.505 23.2507 150.793 24.4453 150.793 25.832V30.536C150.793 31.9227 150.505 33.128 149.929 34.152C149.374 35.1547 148.585 35.9227 147.561 36.456C146.537 36.9893 145.321 37.256 143.913 37.256ZM143.913 34.696C145.171 34.696 146.153 34.344 146.857 33.64C147.561 32.936 147.913 31.9013 147.913 30.536V25.864C147.913 24.4987 147.561 23.464 146.857 22.76C146.153 22.056 145.171 21.704 143.913 21.704C142.675 21.704 141.694 22.056 140.969 22.76C140.265 23.464 139.913 24.4987 139.913 25.864V30.536C139.913 31.9013 140.265 32.936 140.969 33.64C141.694 34.344 142.675 34.696 143.913 34.696ZM163.1 37.256C161.692 37.256 160.476 36.9893 159.452 36.456C158.428 35.9227 157.628 35.1547 157.052 34.152C156.497 33.128 156.22 31.9227 156.22 30.536V25.864C156.22 24.456 156.497 23.2507 157.052 22.248C157.628 21.2453 158.428 20.4773 159.452 19.944C160.476 19.4107 161.692 19.144 163.1 19.144C164.508 19.144 165.724 19.4107 166.748 19.944C167.772 20.4773 168.561 21.2453 169.116 22.248C169.692 23.2507 169.98 24.4453 169.98 25.832V30.536C169.98 31.9227 169.692 33.128 169.116 34.152C168.561 35.1547 167.772 35.9227 166.748 36.456C165.724 36.9893 164.508 37.256 163.1 37.256ZM163.1 34.696C164.359 34.696 165.34 34.344 166.044 33.64C166.748 32.936 167.1 31.9013 167.1 30.536V25.864C167.1 24.4987 166.748 23.464 166.044 22.76C165.34 22.056 164.359 21.704 163.1 21.704C161.863 21.704 160.881 22.056 160.156 22.76C159.452 23.464 159.1 24.4987 159.1 25.864V30.536C159.1 31.9013 159.452 32.936 160.156 33.64C160.881 34.344 161.863 34.696 163.1 34.696ZM184.688 37C183.664 37 182.768 36.7973 182 36.392C181.232 35.9867 180.634 35.4107 180.208 34.664C179.781 33.9173 179.568 33.0427 179.568 32.04V16.264H173.648V13.64H182.448V32.04C182.448 32.7653 182.65 33.3413 183.056 33.768C183.461 34.1733 184.005 34.376 184.688 34.376H190.288V37H184.688ZM200.451 37.32C198.702 37.32 197.283 36.7333 196.195 35.56C195.128 34.3867 194.595 32.7973 194.595 30.792V25.64C194.595 23.6133 195.128 22.0133 196.195 20.84C197.262 19.6667 198.68 19.08 200.451 19.08C201.902 19.08 203.064 19.4747 203.939 20.264C204.814 21.0533 205.251 22.1093 205.251 23.432L204.675 22.76H205.315L205.251 18.76V13.64H208.131V37H205.251V33.64H204.675L205.251 32.968C205.251 34.312 204.814 35.3787 203.939 36.168C203.064 36.936 201.902 37.32 200.451 37.32ZM201.411 34.824C202.606 34.824 203.544 34.4507 204.227 33.704C204.91 32.9573 205.251 31.9227 205.251 30.6V25.8C205.251 24.4773 204.91 23.4427 204.227 22.696C203.544 21.9493 202.606 21.576 201.411 21.576C200.195 21.576 199.235 21.9387 198.531 22.664C197.827 23.3893 197.475 24.4347 197.475 25.8V30.6C197.475 31.9653 197.827 33.0107 198.531 33.736C199.235 34.4613 200.195 34.824 201.411 34.824Z"/>
</mask>
<path d="M2.976 37V13.64H5.856V23.624H13.344V13.64H16.224V37H13.344V26.248H5.856V37H2.976ZM28.7875 37.256C27.3795 37.256 26.1635 36.9893 25.1395 36.456C24.1155 35.9227 23.3155 35.1547 22.7395 34.152C22.1848 33.128 21.9075 31.9227 21.9075 30.536V25.864C21.9075 24.456 22.1848 23.2507 22.7395 22.248C23.3155 21.2453 24.1155 20.4773 25.1395 19.944C26.1635 19.4107 27.3795 19.144 28.7875 19.144C30.1955 19.144 31.4115 19.4107 32.4355 19.944C33.4595 20.4773 34.2488 21.2453 34.8035 22.248C35.3795 23.2507 35.6675 24.4453 35.6675 25.832V30.536C35.6675 31.9227 35.3795 33.128 34.8035 34.152C34.2488 35.1547 33.4595 35.9227 32.4355 36.456C31.4115 36.9893 30.1955 37.256 28.7875 37.256ZM28.7875 34.696C30.0462 34.696 31.0275 34.344 31.7315 33.64C32.4355 32.936 32.7875 31.9013 32.7875 30.536V25.864C32.7875 24.4987 32.4355 23.464 31.7315 22.76C31.0275 22.056 30.0462 21.704 28.7875 21.704C27.5502 21.704 26.5688 22.056 25.8435 22.76C25.1395 23.464 24.7875 24.4987 24.7875 25.864V30.536C24.7875 31.9013 25.1395 32.936 25.8435 33.64C26.5688 34.344 27.5502 34.696 28.7875 34.696ZM47.975 37.256C46.567 37.256 45.351 36.9893 44.327 36.456C43.303 35.9227 42.503 35.1547 41.927 34.152C41.3723 33.128 41.095 31.9227 41.095 30.536V25.864C41.095 24.456 41.3723 23.2507 41.927 22.248C42.503 21.2453 43.303 20.4773 44.327 19.944C45.351 19.4107 46.567 19.144 47.975 19.144C49.383 19.144 50.599 19.4107 51.623 19.944C52.647 20.4773 53.4363 21.2453 53.991 22.248C54.567 23.2507 54.855 24.4453 54.855 25.832V30.536C54.855 31.9227 54.567 33.128 53.991 34.152C53.4363 35.1547 52.647 35.9227 51.623 36.456C50.599 36.9893 49.383 37.256 47.975 37.256ZM47.975 34.696C49.2337 34.696 50.215 34.344 50.919 33.64C51.623 32.936 51.975 31.9013 51.975 30.536V25.864C51.975 24.4987 51.623 23.464 50.919 22.76C50.215 22.056 49.2337 21.704 47.975 21.704C46.7377 21.704 45.7563 22.056 45.031 22.76C44.327 23.464 43.975 24.4987 43.975 25.864V30.536C43.975 31.9013 44.327 32.936 45.031 33.64C45.7563 34.344 46.7377 34.696 47.975 34.696ZM67.1625 37.256C65.7545 37.256 64.5385 36.9893 63.5145 36.456C62.4905 35.9227 61.6905 35.1547 61.1145 34.152C60.5598 33.128 60.2825 31.9227 60.2825 30.536V25.864C60.2825 24.456 60.5598 23.2507 61.1145 22.248C61.6905 21.2453 62.4905 20.4773 63.5145 19.944C64.5385 19.4107 65.7545 19.144 67.1625 19.144C68.5705 19.144 69.7865 19.4107 70.8105 19.944C71.8345 20.4773 72.6238 21.2453 73.1785 22.248C73.7545 23.2507 74.0425 24.4453 74.0425 25.832V30.536C74.0425 31.9227 73.7545 33.128 73.1785 34.152C72.6238 35.1547 71.8345 35.9227 70.8105 36.456C69.7865 36.9893 68.5705 37.256 67.1625 37.256ZM67.1625 34.696C68.4212 34.696 69.4025 34.344 70.1065 33.64C70.8105 32.936 71.1625 31.9013 71.1625 30.536V25.864C71.1625 24.4987 70.8105 23.464 70.1065 22.76C69.4025 22.056 68.4212 21.704 67.1625 21.704C65.9252 21.704 64.9438 22.056 64.2185 22.76C63.5145 23.464 63.1625 24.4987 63.1625 25.864V30.536C63.1625 31.9013 63.5145 32.936 64.2185 33.64C64.9438 34.344 65.9252 34.696 67.1625 34.696ZM86.35 37.256C84.942 37.256 83.726 36.9893 82.702 36.456C81.678 35.9227 80.878 35.1547 80.302 34.152C79.7473 33.128 79.47 31.9227 79.47 30.536V25.864C79.47 24.456 79.7473 23.2507 80.302 22.248C80.878 21.2453 81.678 20.4773 82.702 19.944C83.726 19.4107 84.942 19.144 86.35 19.144C87.758 19.144 88.974 19.4107 89.998 19.944C91.022 20.4773 91.8113 21.2453 92.366 22.248C92.942 23.2507 93.23 24.4453 93.23 25.832V30.536C93.23 31.9227 92.942 33.128 92.366 34.152C91.8113 35.1547 91.022 35.9227 89.998 36.456C88.974 36.9893 87.758 37.256 86.35 37.256ZM86.35 34.696C87.6087 34.696 88.59 34.344 89.294 33.64C89.998 32.936 90.35 31.9013 90.35 30.536V25.864C90.35 24.4987 89.998 23.464 89.294 22.76C88.59 22.056 87.6087 21.704 86.35 21.704C85.1127 21.704 84.1313 22.056 83.406 22.76C82.702 23.464 82.35 24.4987 82.35 25.864V30.536C82.35 31.9013 82.702 32.936 83.406 33.64C84.1313 34.344 85.1127 34.696 86.35 34.696ZM105.538 37.256C104.13 37.256 102.914 36.9893 101.89 36.456C100.866 35.9227 100.066 35.1547 99.4895 34.152C98.9348 33.128 98.6575 31.9227 98.6575 30.536V25.864C98.6575 24.456 98.9348 23.2507 99.4895 22.248C100.066 21.2453 100.866 20.4773 101.89 19.944C102.914 19.4107 104.13 19.144 105.538 19.144C106.946 19.144 108.162 19.4107 109.186 19.944C110.21 20.4773 110.999 21.2453 111.554 22.248C112.13 23.2507 112.418 24.4453 112.418 25.832V30.536C112.418 31.9227 112.13 33.128 111.554 34.152C110.999 35.1547 110.21 35.9227 109.186 36.456C108.162 36.9893 106.946 37.256 105.538 37.256ZM105.538 34.696C106.796 34.696 107.778 34.344 108.482 33.64C109.186 32.936 109.538 31.9013 109.538 30.536V25.864C109.538 24.4987 109.186 23.464 108.482 22.76C107.778 22.056 106.796 21.704 105.538 21.704C104.3 21.704 103.319 22.056 102.594 22.76C101.89 23.464 101.538 24.4987 101.538 25.864V30.536C101.538 31.9013 101.89 32.936 102.594 33.64C103.319 34.344 104.3 34.696 105.538 34.696ZM124.725 37.256C123.317 37.256 122.101 36.9893 121.077 36.456C120.053 35.9227 119.253 35.1547 118.677 34.152C118.122 33.128 117.845 31.9227 117.845 30.536V25.864C117.845 24.456 118.122 23.2507 118.677 22.248C119.253 21.2453 120.053 20.4773 121.077 19.944C122.101 19.4107 123.317 19.144 124.725 19.144C126.133 19.144 127.349 19.4107 128.373 19.944C129.397 20.4773 130.186 21.2453 130.741 22.248C131.317 23.2507 131.605 24.4453 131.605 25.832V30.536C131.605 31.9227 131.317 33.128 130.741 34.152C130.186 35.1547 129.397 35.9227 128.373 36.456C127.349 36.9893 126.133 37.256 124.725 37.256ZM124.725 34.696C125.984 34.696 126.965 34.344 127.669 33.64C128.373 32.936 128.725 31.9013 128.725 30.536V25.864C128.725 24.4987 128.373 23.464 127.669 22.76C126.965 22.056 125.984 21.704 124.725 21.704C123.488 21.704 122.506 22.056 121.781 22.76C121.077 23.464 120.725 24.4987 120.725 25.864V30.536C120.725 31.9013 121.077 32.936 121.781 33.64C122.506 34.344 123.488 34.696 124.725 34.696ZM143.913 37.256C142.505 37.256 141.289 36.9893 140.265 36.456C139.241 35.9227 138.441 35.1547 137.865 34.152C137.31 33.128 137.033 31.9227 137.033 30.536V25.864C137.033 24.456 137.31 23.2507 137.865 22.248C138.441 21.2453 139.241 20.4773 140.265 19.944C141.289 19.4107 142.505 19.144 143.913 19.144C145.321 19.144 146.537 19.4107 147.561 19.944C148.585 20.4773 149.374 21.2453 149.929 22.248C150.505 23.2507 150.793 24.4453 150.793 25.832V30.536C150.793 31.9227 150.505 33.128 149.929 34.152C149.374 35.1547 148.585 35.9227 147.561 36.456C146.537 36.9893 145.321 37.256 143.913 37.256ZM143.913 34.696C145.171 34.696 146.153 34.344 146.857 33.64C147.561 32.936 147.913 31.9013 147.913 30.536V25.864C147.913 24.4987 147.561 23.464 146.857 22.76C146.153 22.056 145.171 21.704 143.913 21.704C142.675 21.704 141.694 22.056 140.969 22.76C140.265 23.464 139.913 24.4987 139.913 25.864V30.536C139.913 31.9013 140.265 32.936 140.969 33.64C141.694 34.344 142.675 34.696 143.913 34.696ZM163.1 37.256C161.692 37.256 160.476 36.9893 159.452 36.456C158.428 35.9227 157.628 35.1547 157.052 34.152C156.497 33.128 156.22 31.9227 156.22 30.536V25.864C156.22 24.456 156.497 23.2507 157.052 22.248C157.628 21.2453 158.428 20.4773 159.452 19.944C160.476 19.4107 161.692 19.144 163.1 19.144C164.508 19.144 165.724 19.4107 166.748 19.944C167.772 20.4773 168.561 21.2453 169.116 22.248C169.692 23.2507 169.98 24.4453 169.98 25.832V30.536C169.98 31.9227 169.692 33.128 169.116 34.152C168.561 35.1547 167.772 35.9227 166.748 36.456C165.724 36.9893 164.508 37.256 163.1 37.256ZM163.1 34.696C164.359 34.696 165.34 34.344 166.044 33.64C166.748 32.936 167.1 31.9013 167.1 30.536V25.864C167.1 24.4987 166.748 23.464 166.044 22.76C165.34 22.056 164.359 21.704 163.1 21.704C161.863 21.704 160.881 22.056 160.156 22.76C159.452 23.464 159.1 24.4987 159.1 25.864V30.536C159.1 31.9013 159.452 32.936 160.156 33.64C160.881 34.344 161.863 34.696 163.1 34.696ZM184.688 37C183.664 37 182.768 36.7973 182 36.392C181.232 35.9867 180.634 35.4107 180.208 34.664C179.781 33.9173 179.568 33.0427 179.568 32.04V16.264H173.648V13.64H182.448V32.04C182.448 32.7653 182.65 33.3413 183.056 33.768C183.461 34.1733 184.005 34.376 184.688 34.376H190.288V37H184.688ZM200.451 37.32C198.702 37.32 197.283 36.7333 196.195 35.56C195.128 34.3867 194.595 32.7973 194.595 30.792V25.64C194.595 23.6133 195.128 22.0133 196.195 20.84C197.262 19.6667 198.68 19.08 200.451 19.08C201.902 19.08 203.064 19.4747 203.939 20.264C204.814 21.0533 205.251 22.1093 205.251 23.432L204.675 22.76H205.315L205.251 18.76V13.64H208.131V37H205.251V33.64H204.675L205.251 32.968C205.251 34.312 204.814 35.3787 203.939 36.168C203.064 36.936 201.902 37.32 200.451 37.32ZM201.411 34.824C202.606 34.824 203.544 34.4507 204.227 33.704C204.91 32.9573 205.251 31.9227 205.251 30.6V25.8C205.251 24.4773 204.91 23.4427 204.227 22.696C203.544 21.9493 202.606 21.576 201.411 21.576C200.195 21.576 199.235 21.9387 198.531 22.664C197.827 23.3893 197.475 24.4347 197.475 25.8V30.6C197.475 31.9653 197.827 33.0107 198.531 33.736C199.235 34.4613 200.195 34.824 201.411 34.824Z" fill="#93BDED"/>
<path d="M2.976 37H1.976V38H2.976V37ZM2.976 13.64V12.64H1.976V13.64H2.976ZM5.856 13.64H6.856V12.64H5.856V13.64ZM5.856 23.624H4.856V24.624H5.856V23.624ZM13.344 23.624V24.624H14.344V23.624H13.344ZM13.344 13.64V12.64H12.344V13.64H13.344ZM16.224 13.64H17.224V12.64H16.224V13.64ZM16.224 37V38H17.224V37H16.224ZM13.344 37H12.344V38H13.344V37ZM13.344 26.248H14.344V25.248H13.344V26.248ZM5.856 26.248V25.248H4.856V26.248H5.856ZM5.856 37V38H6.856V37H5.856ZM3.976 37V13.64H1.976V37H3.976ZM2.976 14.64H5.856V12.64H2.976V14.64ZM4.856 13.64V23.624H6.856V13.64H4.856ZM5.856 24.624H13.344V22.624H5.856V24.624ZM14.344 23.624V13.64H12.344V23.624H14.344ZM13.344 14.64H16.224V12.64H13.344V14.64ZM15.224 13.64V37H17.224V13.64H15.224ZM16.224 36H13.344V38H16.224V36ZM14.344 37V26.248H12.344V37H14.344ZM13.344 25.248H5.856V27.248H13.344V25.248ZM4.856 26.248V37H6.856V26.248H4.856ZM5.856 36H2.976V38H5.856V36ZM25.1395 36.456L24.6776 37.3429L25.1395 36.456ZM22.7395 34.152L21.8602 34.6283L21.8662 34.6393L21.8724 34.6501L22.7395 34.152ZM22.7395 22.248L21.8724 21.7499L21.8684 21.7569L21.8645 21.7639L22.7395 22.248ZM25.1395 19.944L24.6776 19.0571H24.6776L25.1395 19.944ZM32.4355 19.944L32.8974 19.0571L32.8974 19.0571L32.4355 19.944ZM34.8035 22.248L33.9285 22.7321L33.9324 22.7391L33.9364 22.7461L34.8035 22.248ZM34.8035 34.152L33.9319 33.6617L33.9285 33.6679L34.8035 34.152ZM32.4355 36.456L32.8974 37.3429L32.4355 36.456ZM31.7315 33.64L32.4386 34.3471L31.7315 33.64ZM25.8435 22.76L25.147 22.0424L25.1417 22.0476L25.1364 22.0529L25.8435 22.76ZM25.8435 33.64L25.1364 34.3471L25.1417 34.3524L25.147 34.3576L25.8435 33.64ZM28.7875 36.256C27.5055 36.256 26.4548 36.0135 25.6014 35.5691L24.6776 37.3429C25.8722 37.9651 27.2535 38.256 28.7875 38.256V36.256ZM25.6014 35.5691C24.7471 35.1241 24.0876 34.4912 23.6066 33.6539L21.8724 34.6501C22.5434 35.8182 23.4839 36.7212 24.6776 37.3429L25.6014 35.5691ZM23.6188 33.6757C23.1572 32.8235 22.9075 31.788 22.9075 30.536H20.9075C20.9075 32.0573 21.2125 33.4325 21.8602 34.6283L23.6188 33.6757ZM22.9075 30.536V25.864H20.9075V30.536H22.9075ZM22.9075 25.864C22.9075 24.587 23.1586 23.5563 23.6145 22.7321L21.8645 21.7639C21.2111 22.9451 20.9075 24.325 20.9075 25.864H22.9075ZM23.6066 22.7461C24.0876 21.9088 24.7471 21.2759 25.6014 20.8309L24.6776 19.0571C23.4839 19.6788 22.5434 20.5818 21.8724 21.7499L23.6066 22.7461ZM25.6014 20.8309C26.4548 20.3865 27.5055 20.144 28.7875 20.144V18.144C27.2535 18.144 25.8722 18.4349 24.6776 19.0571L25.6014 20.8309ZM28.7875 20.144C30.0695 20.144 31.1202 20.3865 31.9736 20.8309L32.8974 19.0571C31.7028 18.4349 30.3215 18.144 28.7875 18.144V20.144ZM31.9736 20.8309C32.8247 21.2742 33.4697 21.9027 33.9285 22.7321L35.6785 21.7639C35.028 20.5879 34.0943 19.6805 32.8974 19.0571L31.9736 20.8309ZM33.9364 22.7461C34.4095 23.5696 34.6675 24.5853 34.6675 25.832H36.6675C36.6675 24.3054 36.3495 22.9317 35.6706 21.7499L33.9364 22.7461ZM34.6675 25.832V30.536H36.6675V25.832H34.6675ZM34.6675 30.536C34.6675 31.782 34.4097 32.8124 33.9319 33.6617L35.6751 34.6423C36.3493 33.4436 36.6675 32.0633 36.6675 30.536H34.6675ZM33.9285 33.6679C33.4697 34.4973 32.8247 35.1258 31.9736 35.5691L32.8974 37.3429C34.0943 36.7195 35.028 35.8121 35.6785 34.6361L33.9285 33.6679ZM31.9736 35.5691C31.1202 36.0135 30.0695 36.256 28.7875 36.256V38.256C30.3215 38.256 31.7028 37.9651 32.8974 37.3429L31.9736 35.5691ZM28.7875 35.696C30.2376 35.696 31.5007 35.285 32.4386 34.3471L31.0244 32.9329C30.5543 33.403 29.8547 33.696 28.7875 33.696V35.696ZM32.4386 34.3471C33.391 33.3947 33.7875 32.0658 33.7875 30.536H31.7875C31.7875 31.7368 31.48 32.4773 31.0244 32.9329L32.4386 34.3471ZM33.7875 30.536V25.864H31.7875V30.536H33.7875ZM33.7875 25.864C33.7875 24.3342 33.391 23.0053 32.4386 22.0529L31.0244 23.4671C31.48 23.9227 31.7875 24.6632 31.7875 25.864H33.7875ZM32.4386 22.0529C31.5007 21.115 30.2376 20.704 28.7875 20.704V22.704C29.8547 22.704 30.5543 22.997 31.0244 23.4671L32.4386 22.0529ZM28.7875 20.704C27.3518 20.704 26.099 21.1185 25.147 22.0424L26.54 23.4776C27.0387 22.9935 27.7485 22.704 28.7875 22.704V20.704ZM25.1364 22.0529C24.184 23.0053 23.7875 24.3342 23.7875 25.864H25.7875C25.7875 24.6632 26.095 23.9227 26.5506 23.4671L25.1364 22.0529ZM23.7875 25.864V30.536H25.7875V25.864H23.7875ZM23.7875 30.536C23.7875 32.0658 24.184 33.3947 25.1364 34.3471L26.5506 32.9329C26.095 32.4773 25.7875 31.7368 25.7875 30.536H23.7875ZM25.147 34.3576C26.099 35.2815 27.3518 35.696 28.7875 35.696V33.696C27.7485 33.696 27.0387 33.4065 26.54 32.9224L25.147 34.3576ZM44.327 36.456L43.8651 37.3429L44.327 36.456ZM41.927 34.152L41.0477 34.6283L41.0537 34.6393L41.0599 34.6501L41.927 34.152ZM41.927 22.248L41.0599 21.7499L41.0559 21.7569L41.052 21.7639L41.927 22.248ZM44.327 19.944L43.8651 19.0571L44.327 19.944ZM51.623 19.944L52.0849 19.0571L52.0849 19.0571L51.623 19.944ZM53.991 22.248L53.116 22.7321L53.1199 22.7391L53.1239 22.7461L53.991 22.248ZM53.991 34.152L53.1194 33.6617L53.116 33.6679L53.991 34.152ZM51.623 36.456L52.0849 37.3429L51.623 36.456ZM50.919 33.64L51.6261 34.3471L50.919 33.64ZM45.031 22.76L44.3345 22.0424L44.3292 22.0476L44.3239 22.0529L45.031 22.76ZM45.031 33.64L44.3239 34.3471L44.3292 34.3524L44.3345 34.3576L45.031 33.64ZM47.975 36.256C46.693 36.256 45.6423 36.0135 44.7889 35.5691L43.8651 37.3429C45.0597 37.9651 46.441 38.256 47.975 38.256V36.256ZM44.7889 35.5691C43.9346 35.1241 43.2751 34.4912 42.7941 33.6539L41.0599 34.6501C41.7309 35.8182 42.6714 36.7212 43.8651 37.3429L44.7889 35.5691ZM42.8063 33.6757C42.3447 32.8235 42.095 31.788 42.095 30.536H40.095C40.095 32.0573 40.4 33.4325 41.0477 34.6283L42.8063 33.6757ZM42.095 30.536V25.864H40.095V30.536H42.095ZM42.095 25.864C42.095 24.587 42.3461 23.5563 42.802 22.7321L41.052 21.7639C40.3986 22.9451 40.095 24.325 40.095 25.864H42.095ZM42.7941 22.7461C43.2751 21.9088 43.9346 21.2759 44.7889 20.8309L43.8651 19.0571C42.6714 19.6788 41.7309 20.5818 41.0599 21.7499L42.7941 22.7461ZM44.7889 20.8309C45.6423 20.3865 46.693 20.144 47.975 20.144V18.144C46.441 18.144 45.0597 18.4349 43.8651 19.0571L44.7889 20.8309ZM47.975 20.144C49.257 20.144 50.3077 20.3865 51.1611 20.8309L52.0849 19.0571C50.8903 18.4349 49.509 18.144 47.975 18.144V20.144ZM51.1611 20.8309C52.0122 21.2742 52.6572 21.9027 53.116 22.7321L54.866 21.7639C54.2155 20.5879 53.2818 19.6805 52.0849 19.0571L51.1611 20.8309ZM53.1239 22.7461C53.597 23.5696 53.855 24.5853 53.855 25.832H55.855C55.855 24.3054 55.537 22.9317 54.8581 21.7499L53.1239 22.7461ZM53.855 25.832V30.536H55.855V25.832H53.855ZM53.855 30.536C53.855 31.782 53.5972 32.8124 53.1194 33.6617L54.8626 34.6423C55.5368 33.4436 55.855 32.0633 55.855 30.536H53.855ZM53.116 33.6679C52.6572 34.4973 52.0122 35.1258 51.1611 35.5691L52.0849 37.3429C53.2818 36.7195 54.2155 35.8121 54.866 34.6361L53.116 33.6679ZM51.1611 35.5691C50.3077 36.0135 49.257 36.256 47.975 36.256V38.256C49.509 38.256 50.8903 37.9651 52.0849 37.3429L51.1611 35.5691ZM47.975 35.696C49.4251 35.696 50.6882 35.285 51.6261 34.3471L50.2119 32.9329C49.7418 33.403 49.0422 33.696 47.975 33.696V35.696ZM51.6261 34.3471C52.5785 33.3947 52.975 32.0658 52.975 30.536H50.975C50.975 31.7368 50.6675 32.4773 50.2119 32.9329L51.6261 34.3471ZM52.975 30.536V25.864H50.975V30.536H52.975ZM52.975 25.864C52.975 24.3342 52.5785 23.0053 51.6261 22.0529L50.2119 23.4671C50.6675 23.9227 50.975 24.6632 50.975 25.864H52.975ZM51.6261 22.0529C50.6882 21.115 49.4251 20.704 47.975 20.704V22.704C49.0422 22.704 49.7418 22.997 50.2119 23.4671L51.6261 22.0529ZM47.975 20.704C46.5393 20.704 45.2865 21.1185 44.3345 22.0424L45.7275 23.4776C46.2262 22.9935 46.936 22.704 47.975 22.704V20.704ZM44.3239 22.0529C43.3715 23.0053 42.975 24.3342 42.975 25.864H44.975C44.975 24.6632 45.2825 23.9227 45.7381 23.4671L44.3239 22.0529ZM42.975 25.864V30.536H44.975V25.864H42.975ZM42.975 30.536C42.975 32.0658 43.3715 33.3947 44.3239 34.3471L45.7381 32.9329C45.2825 32.4773 44.975 31.7368 44.975 30.536H42.975ZM44.3345 34.3576C45.2865 35.2815 46.5393 35.696 47.975 35.696V33.696C46.936 33.696 46.2262 33.4065 45.7275 32.9224L44.3345 34.3576ZM63.5145 36.456L63.0526 37.3429L63.5145 36.456ZM61.1145 34.152L60.2352 34.6283L60.2412 34.6393L60.2474 34.6501L61.1145 34.152ZM61.1145 22.248L60.2474 21.7499L60.2434 21.7569L60.2395 21.7639L61.1145 22.248ZM63.5145 19.944L63.0526 19.0571L63.5145 19.944ZM70.8105 19.944L71.2724 19.0571V19.0571L70.8105 19.944ZM73.1785 22.248L72.3035 22.7321L72.3074 22.7391L72.3114 22.7461L73.1785 22.248ZM73.1785 34.152L72.3069 33.6617L72.3035 33.6679L73.1785 34.152ZM70.8105 36.456L71.2724 37.3429L70.8105 36.456ZM70.1065 33.64L70.8136 34.3471L70.1065 33.64ZM64.2185 22.76L63.522 22.0424L63.5167 22.0476L63.5114 22.0529L64.2185 22.76ZM64.2185 33.64L63.5114 34.3471L63.5167 34.3524L63.522 34.3576L64.2185 33.64ZM67.1625 36.256C65.8805 36.256 64.8298 36.0135 63.9764 35.5691L63.0526 37.3429C64.2472 37.9651 65.6285 38.256 67.1625 38.256V36.256ZM63.9764 35.5691C63.1221 35.1241 62.4626 34.4912 61.9816 33.6539L60.2474 34.6501C60.9184 35.8182 61.8589 36.7212 63.0526 37.3429L63.9764 35.5691ZM61.9938 33.6757C61.5322 32.8235 61.2825 31.788 61.2825 30.536H59.2825C59.2825 32.0573 59.5875 33.4325 60.2352 34.6283L61.9938 33.6757ZM61.2825 30.536V25.864H59.2825V30.536H61.2825ZM61.2825 25.864C61.2825 24.587 61.5336 23.5563 61.9895 22.7321L60.2395 21.7639C59.5861 22.9451 59.2825 24.325 59.2825 25.864H61.2825ZM61.9816 22.7461C62.4626 21.9088 63.1221 21.2759 63.9764 20.8309L63.0526 19.0571C61.8589 19.6788 60.9184 20.5818 60.2474 21.7499L61.9816 22.7461ZM63.9764 20.8309C64.8298 20.3865 65.8805 20.144 67.1625 20.144V18.144C65.6285 18.144 64.2472 18.4349 63.0526 19.0571L63.9764 20.8309ZM67.1625 20.144C68.4445 20.144 69.4952 20.3865 70.3486 20.8309L71.2724 19.0571C70.0778 18.4349 68.6965 18.144 67.1625 18.144V20.144ZM70.3486 20.8309C71.1997 21.2742 71.8447 21.9027 72.3035 22.7321L74.0535 21.7639C73.403 20.5879 72.4693 19.6805 71.2724 19.0571L70.3486 20.8309ZM72.3114 22.7461C72.7845 23.5696 73.0425 24.5853 73.0425 25.832H75.0425C75.0425 24.3054 74.7245 22.9317 74.0456 21.7499L72.3114 22.7461ZM73.0425 25.832V30.536H75.0425V25.832H73.0425ZM73.0425 30.536C73.0425 31.782 72.7847 32.8124 72.3069 33.6617L74.0501 34.6423C74.7243 33.4436 75.0425 32.0633 75.0425 30.536H73.0425ZM72.3035 33.6679C71.8447 34.4973 71.1997 35.1258 70.3486 35.5691L71.2724 37.3429C72.4693 36.7195 73.403 35.8121 74.0535 34.6361L72.3035 33.6679ZM70.3486 35.5691C69.4952 36.0135 68.4445 36.256 67.1625 36.256V38.256C68.6965 38.256 70.0778 37.9651 71.2724 37.3429L70.3486 35.5691ZM67.1625 35.696C68.6126 35.696 69.8757 35.285 70.8136 34.3471L69.3994 32.9329C68.9293 33.403 68.2297 33.696 67.1625 33.696V35.696ZM70.8136 34.3471C71.766 33.3947 72.1625 32.0658 72.1625 30.536H70.1625C70.1625 31.7368 69.855 32.4773 69.3994 32.9329L70.8136 34.3471ZM72.1625 30.536V25.864H70.1625V30.536H72.1625ZM72.1625 25.864C72.1625 24.3342 71.766 23.0053 70.8136 22.0529L69.3994 23.4671C69.855 23.9227 70.1625 24.6632 70.1625 25.864H72.1625ZM70.8136 22.0529C69.8757 21.115 68.6126 20.704 67.1625 20.704V22.704C68.2297 22.704 68.9293 22.997 69.3994 23.4671L70.8136 22.0529ZM67.1625 20.704C65.7268 20.704 64.474 21.1185 63.522 22.0424L64.915 23.4776C65.4137 22.9935 66.1235 22.704 67.1625 22.704V20.704ZM63.5114 22.0529C62.559 23.0053 62.1625 24.3342 62.1625 25.864H64.1625C64.1625 24.6632 64.47 23.9227 64.9256 23.4671L63.5114 22.0529ZM62.1625 25.864V30.536H64.1625V25.864H62.1625ZM62.1625 30.536C62.1625 32.0658 62.559 33.3947 63.5114 34.3471L64.9256 32.9329C64.47 32.4773 64.1625 31.7368 64.1625 30.536H62.1625ZM63.522 34.3576C64.474 35.2815 65.7268 35.696 67.1625 35.696V33.696C66.1235 33.696 65.4137 33.4065 64.915 32.9224L63.522 34.3576ZM82.702 36.456L82.2401 37.3429L82.702 36.456ZM80.302 34.152L79.4227 34.6283L79.4287 34.6393L79.4349 34.6501L80.302 34.152ZM80.302 22.248L79.4349 21.7499L79.4309 21.7569L79.427 21.7639L80.302 22.248ZM82.702 19.944L82.2401 19.0571L82.702 19.944ZM89.998 19.944L90.4599 19.0571V19.0571L89.998 19.944ZM92.366 22.248L91.491 22.7321L91.4949 22.7391L91.4989 22.7461L92.366 22.248ZM92.366 34.152L91.4944 33.6617L91.491 33.6679L92.366 34.152ZM89.998 36.456L90.4599 37.3429L89.998 36.456ZM89.294 33.64L90.0011 34.3471L89.294 33.64ZM83.406 22.76L82.7095 22.0424L82.7042 22.0476L82.6989 22.0529L83.406 22.76ZM83.406 33.64L82.6989 34.3471L82.7042 34.3524L82.7095 34.3576L83.406 33.64ZM86.35 36.256C85.068 36.256 84.0173 36.0135 83.1639 35.5691L82.2401 37.3429C83.4347 37.9651 84.816 38.256 86.35 38.256V36.256ZM83.1639 35.5691C82.3096 35.1241 81.6501 34.4912 81.1691 33.6539L79.4349 34.6501C80.1059 35.8182 81.0464 36.7212 82.2401 37.3429L83.1639 35.5691ZM81.1813 33.6757C80.7197 32.8235 80.47 31.788 80.47 30.536H78.47C78.47 32.0573 78.775 33.4325 79.4227 34.6283L81.1813 33.6757ZM80.47 30.536V25.864H78.47V30.536H80.47ZM80.47 25.864C80.47 24.587 80.7211 23.5563 81.177 22.7321L79.427 21.7639C78.7736 22.9451 78.47 24.325 78.47 25.864H80.47ZM81.1691 22.7461C81.6501 21.9088 82.3096 21.2759 83.1639 20.8309L82.2401 19.0571C81.0464 19.6788 80.1059 20.5818 79.4349 21.7499L81.1691 22.7461ZM83.1639 20.8309C84.0173 20.3865 85.068 20.144 86.35 20.144V18.144C84.816 18.144 83.4347 18.4349 82.2401 19.0571L83.1639 20.8309ZM86.35 20.144C87.632 20.144 88.6827 20.3865 89.5361 20.8309L90.4599 19.0571C89.2653 18.4349 87.884 18.144 86.35 18.144V20.144ZM89.5361 20.8309C90.3872 21.2742 91.0322 21.9027 91.491 22.7321L93.241 21.7639C92.5905 20.5879 91.6568 19.6805 90.4599 19.0571L89.5361 20.8309ZM91.4989 22.7461C91.972 23.5696 92.23 24.5853 92.23 25.832H94.23C94.23 24.3054 93.912 22.9317 93.2331 21.7499L91.4989 22.7461ZM92.23 25.832V30.536H94.23V25.832H92.23ZM92.23 30.536C92.23 31.782 91.9722 32.8124 91.4944 33.6617L93.2376 34.6423C93.9118 33.4436 94.23 32.0633 94.23 30.536H92.23ZM91.491 33.6679C91.0322 34.4973 90.3872 35.1258 89.5361 35.5691L90.4599 37.3429C91.6568 36.7195 92.5905 35.8121 93.241 34.6361L91.491 33.6679ZM89.5361 35.5691C88.6827 36.0135 87.632 36.256 86.35 36.256V38.256C87.884 38.256 89.2653 37.9651 90.4599 37.3429L89.5361 35.5691ZM86.35 35.696C87.8001 35.696 89.0632 35.285 90.0011 34.3471L88.5869 32.9329C88.1168 33.403 87.4172 33.696 86.35 33.696V35.696ZM90.0011 34.3471C90.9535 33.3947 91.35 32.0658 91.35 30.536H89.35C89.35 31.7368 89.0425 32.4773 88.5869 32.9329L90.0011 34.3471ZM91.35 30.536V25.864H89.35V30.536H91.35ZM91.35 25.864C91.35 24.3342 90.9535 23.0053 90.0011 22.0529L88.5869 23.4671C89.0425 23.9227 89.35 24.6632 89.35 25.864H91.35ZM90.0011 22.0529C89.0632 21.115 87.8001 20.704 86.35 20.704V22.704C87.4172 22.704 88.1168 22.997 88.5869 23.4671L90.0011 22.0529ZM86.35 20.704C84.9143 20.704 83.6615 21.1185 82.7095 22.0424L84.1025 23.4776C84.6012 22.9935 85.311 22.704 86.35 22.704V20.704ZM82.6989 22.0529C81.7465 23.0053 81.35 24.3342 81.35 25.864H83.35C83.35 24.6632 83.6575 23.9227 84.1131 23.4671L82.6989 22.0529ZM81.35 25.864V30.536H83.35V25.864H81.35ZM81.35 30.536C81.35 32.0658 81.7465 33.3947 82.6989 34.3471L84.1131 32.9329C83.6575 32.4773 83.35 31.7368 83.35 30.536H81.35ZM82.7095 34.3576C83.6615 35.2815 84.9143 35.696 86.35 35.696V33.696C85.311 33.696 84.6012 33.4065 84.1025 32.9224L82.7095 34.3576ZM101.89 36.456L101.428 37.3429L101.89 36.456ZM99.4895 34.152L98.6102 34.6283L98.6162 34.6393L98.6224 34.6501L99.4895 34.152ZM99.4895 22.248L98.6224 21.7499L98.6184 21.7569L98.6145 21.7639L99.4895 22.248ZM101.89 19.944L101.428 19.0571L101.89 19.944ZM109.186 19.944L109.647 19.0571V19.0571L109.186 19.944ZM111.553 22.248L110.678 22.7321L110.682 22.7391L110.686 22.7461L111.553 22.248ZM111.553 34.152L110.682 33.6617L110.678 33.6679L111.553 34.152ZM109.186 36.456L109.647 37.3429L109.186 36.456ZM108.481 33.64L109.189 34.3471L108.481 33.64ZM102.593 22.76L101.897 22.0424L101.892 22.0476L101.886 22.0529L102.593 22.76ZM102.593 33.64L101.886 34.3471L101.892 34.3524L101.897 34.3576L102.593 33.64ZM105.537 36.256C104.255 36.256 103.205 36.0135 102.351 35.5691L101.428 37.3429C102.622 37.9651 104.004 38.256 105.537 38.256V36.256ZM102.351 35.5691C101.497 35.1241 100.838 34.4912 100.357 33.6539L98.6224 34.6501C99.2934 35.8182 100.234 36.7212 101.428 37.3429L102.351 35.5691ZM100.369 33.6757C99.9072 32.8235 99.6575 31.788 99.6575 30.536H97.6575C97.6575 32.0573 97.9625 33.4325 98.6102 34.6283L100.369 33.6757ZM99.6575 30.536V25.864H97.6575V30.536H99.6575ZM99.6575 25.864C99.6575 24.587 99.9086 23.5563 100.365 22.7321L98.6145 21.7639C97.9611 22.9451 97.6575 24.325 97.6575 25.864H99.6575ZM100.357 22.7461C100.838 21.9088 101.497 21.2759 102.351 20.8309L101.428 19.0571C100.234 19.6788 99.2934 20.5818 98.6224 21.7499L100.357 22.7461ZM102.351 20.8309C103.205 20.3865 104.255 20.144 105.537 20.144V18.144C104.004 18.144 102.622 18.4349 101.428 19.0571L102.351 20.8309ZM105.537 20.144C106.82 20.144 107.87 20.3865 108.724 20.8309L109.647 19.0571C108.453 18.4349 107.071 18.144 105.537 18.144V20.144ZM108.724 20.8309C109.575 21.2742 110.22 21.9027 110.678 22.7321L112.429 21.7639C111.778 20.5879 110.844 19.6805 109.647 19.0571L108.724 20.8309ZM110.686 22.7461C111.159 23.5696 111.418 24.5853 111.418 25.832H113.418C113.418 24.3054 113.1 22.9317 112.421 21.7499L110.686 22.7461ZM111.418 25.832V30.536H113.418V25.832H111.418ZM111.418 30.536C111.418 31.782 111.16 32.8124 110.682 33.6617L112.425 34.6423C113.099 33.4436 113.418 32.0633 113.418 30.536H111.418ZM110.678 33.6679C110.22 34.4973 109.575 35.1258 108.724 35.5691L109.647 37.3429C110.844 36.7195 111.778 35.8121 112.429 34.6361L110.678 33.6679ZM108.724 35.5691C107.87 36.0135 106.82 36.256 105.537 36.256V38.256C107.071 38.256 108.453 37.9651 109.647 37.3429L108.724 35.5691ZM105.537 35.696C106.988 35.696 108.251 35.285 109.189 34.3471L107.774 32.9329C107.304 33.403 106.605 33.696 105.537 33.696V35.696ZM109.189 34.3471C110.141 33.3947 110.537 32.0658 110.537 30.536H108.537C108.537 31.7368 108.23 32.4773 107.774 32.9329L109.189 34.3471ZM110.537 30.536V25.864H108.537V30.536H110.537ZM110.537 25.864C110.537 24.3342 110.141 23.0053 109.189 22.0529L107.774 23.4671C108.23 23.9227 108.537 24.6632 108.537 25.864H110.537ZM109.189 22.0529C108.251 21.115 106.988 20.704 105.537 20.704V22.704C106.605 22.704 107.304 22.997 107.774 23.4671L109.189 22.0529ZM105.537 20.704C104.102 20.704 102.849 21.1185 101.897 22.0424L103.29 23.4776C103.789 22.9935 104.499 22.704 105.537 22.704V20.704ZM101.886 22.0529C100.934 23.0053 100.537 24.3342 100.537 25.864H102.537C102.537 24.6632 102.845 23.9227 103.301 23.4671L101.886 22.0529ZM100.537 25.864V30.536H102.537V25.864H100.537ZM100.537 30.536C100.537 32.0658 100.934 33.3947 101.886 34.3471L103.301 32.9329C102.845 32.4773 102.537 31.7368 102.537 30.536H100.537ZM101.897 34.3576C102.849 35.2815 104.102 35.696 105.537 35.696V33.696C104.499 33.696 103.789 33.4065 103.29 32.9224L101.897 34.3576ZM121.077 36.456L120.615 37.3429L121.077 36.456ZM118.677 34.152L117.798 34.6283L117.804 34.6393L117.81 34.6501L118.677 34.152ZM118.677 22.248L117.81 21.7499L117.806 21.7569L117.802 21.7639L118.677 22.248ZM121.077 19.944L120.615 19.0571L121.077 19.944ZM128.373 19.944L128.835 19.0571V19.0571L128.373 19.944ZM130.741 22.248L129.866 22.7321L129.87 22.7391L129.874 22.7461L130.741 22.248ZM130.741 34.152L129.869 33.6617L129.866 33.6679L130.741 34.152ZM128.373 36.456L128.835 37.3429L128.373 36.456ZM127.669 33.64L128.376 34.3471L127.669 33.64ZM121.781 22.76L121.085 22.0424L121.079 22.0476L121.074 22.0529L121.781 22.76ZM121.781 33.64L121.074 34.3471L121.079 34.3524L121.085 34.3576L121.781 33.64ZM124.725 36.256C123.443 36.256 122.392 36.0135 121.539 35.5691L120.615 37.3429C121.81 37.9651 123.191 38.256 124.725 38.256V36.256ZM121.539 35.5691C120.685 35.1241 120.025 34.4912 119.544 33.6539L117.81 34.6501C118.481 35.8182 119.421 36.7212 120.615 37.3429L121.539 35.5691ZM119.556 33.6757C119.095 32.8235 118.845 31.788 118.845 30.536H116.845C116.845 32.0573 117.15 33.4325 117.798 34.6283L119.556 33.6757ZM118.845 30.536V25.864H116.845V30.536H118.845ZM118.845 25.864C118.845 24.587 119.096 23.5563 119.552 22.7321L117.802 21.7639C117.149 22.9451 116.845 24.325 116.845 25.864H118.845ZM119.544 22.7461C120.025 21.9088 120.685 21.2759 121.539 20.8309L120.615 19.0571C119.421 19.6788 118.481 20.5818 117.81 21.7499L119.544 22.7461ZM121.539 20.8309C122.392 20.3865 123.443 20.144 124.725 20.144V18.144C123.191 18.144 121.81 18.4349 120.615 19.0571L121.539 20.8309ZM124.725 20.144C126.007 20.144 127.058 20.3865 127.911 20.8309L128.835 19.0571C127.64 18.4349 126.259 18.144 124.725 18.144V20.144ZM127.911 20.8309C128.762 21.2742 129.407 21.9027 129.866 22.7321L131.616 21.7639C130.965 20.5879 130.032 19.6805 128.835 19.0571L127.911 20.8309ZM129.874 22.7461C130.347 23.5696 130.605 24.5853 130.605 25.832H132.605C132.605 24.3054 132.287 22.9317 131.608 21.7499L129.874 22.7461ZM130.605 25.832V30.536H132.605V25.832H130.605ZM130.605 30.536C130.605 31.782 130.347 32.8124 129.869 33.6617L131.613 34.6423C132.287 33.4436 132.605 32.0633 132.605 30.536H130.605ZM129.866 33.6679C129.407 34.4973 128.762 35.1258 127.911 35.5691L128.835 37.3429C130.032 36.7195 130.965 35.8121 131.616 34.6361L129.866 33.6679ZM127.911 35.5691C127.058 36.0135 126.007 36.256 124.725 36.256V38.256C126.259 38.256 127.64 37.9651 128.835 37.3429L127.911 35.5691ZM124.725 35.696C126.175 35.696 127.438 35.285 128.376 34.3471L126.962 32.9329C126.492 33.403 125.792 33.696 124.725 33.696V35.696ZM128.376 34.3471C129.329 33.3947 129.725 32.0658 129.725 30.536H127.725C127.725 31.7368 127.417 32.4773 126.962 32.9329L128.376 34.3471ZM129.725 30.536V25.864H127.725V30.536H129.725ZM129.725 25.864C129.725 24.3342 129.329 23.0053 128.376 22.0529L126.962 23.4671C127.417 23.9227 127.725 24.6632 127.725 25.864H129.725ZM128.376 22.0529C127.438 21.115 126.175 20.704 124.725 20.704V22.704C125.792 22.704 126.492 22.997 126.962 23.4671L128.376 22.0529ZM124.725 20.704C123.289 20.704 122.036 21.1185 121.085 22.0424L122.477 23.4776C122.976 22.9935 123.686 22.704 124.725 22.704V20.704ZM121.074 22.0529C120.121 23.0053 119.725 24.3342 119.725 25.864H121.725C121.725 24.6632 122.033 23.9227 122.488 23.4671L121.074 22.0529ZM119.725 25.864V30.536H121.725V25.864H119.725ZM119.725 30.536C119.725 32.0658 120.121 33.3947 121.074 34.3471L122.488 32.9329C122.033 32.4773 121.725 31.7368 121.725 30.536H119.725ZM121.085 34.3576C122.036 35.2815 123.289 35.696 124.725 35.696V33.696C123.686 33.696 122.976 33.4065 122.477 32.9224L121.085 34.3576ZM140.264 36.456L139.803 37.3429L140.264 36.456ZM137.865 34.152L136.985 34.6283L136.991 34.6393L136.997 34.6501L137.865 34.152ZM137.865 22.248L136.997 21.7499L136.993 21.7569L136.989 21.7639L137.865 22.248ZM140.264 19.944L139.803 19.0571L140.264 19.944ZM147.561 19.944L148.022 19.0571V19.0571L147.561 19.944ZM149.928 22.248L149.053 22.7321L149.057 22.7391L149.061 22.7461L149.928 22.248ZM149.928 34.152L149.057 33.6617L149.053 33.6679L149.928 34.152ZM147.561 36.456L148.022 37.3429L147.561 36.456ZM146.857 33.64L147.564 34.3471L146.857 33.64ZM140.969 22.76L140.272 22.0424L140.267 22.0476L140.261 22.0529L140.969 22.76ZM140.969 33.64L140.261 34.3471L140.267 34.3524L140.272 34.3576L140.969 33.64ZM143.913 36.256C142.63 36.256 141.58 36.0135 140.726 35.5691L139.803 37.3429C140.997 37.9651 142.379 38.256 143.913 38.256V36.256ZM140.726 35.5691C139.872 35.1241 139.213 34.4912 138.732 33.6539L136.997 34.6501C137.668 35.8182 138.609 36.7212 139.803 37.3429L140.726 35.5691ZM138.744 33.6757C138.282 32.8235 138.033 31.788 138.033 30.536H136.033C136.033 32.0573 136.337 33.4325 136.985 34.6283L138.744 33.6757ZM138.033 30.536V25.864H136.033V30.536H138.033ZM138.033 25.864C138.033 24.587 138.284 23.5563 138.74 22.7321L136.989 21.7639C136.336 22.9451 136.033 24.325 136.033 25.864H138.033ZM138.732 22.7461C139.213 21.9088 139.872 21.2759 140.726 20.8309L139.803 19.0571C138.609 19.6788 137.668 20.5818 136.997 21.7499L138.732 22.7461ZM140.726 20.8309C141.58 20.3865 142.63 20.144 143.913 20.144V18.144C142.379 18.144 140.997 18.4349 139.803 19.0571L140.726 20.8309ZM143.913 20.144C145.195 20.144 146.245 20.3865 147.099 20.8309L148.022 19.0571C146.828 18.4349 145.446 18.144 143.913 18.144V20.144ZM147.099 20.8309C147.95 21.2742 148.595 21.9027 149.053 22.7321L150.804 21.7639C150.153 20.5879 149.219 19.6805 148.022 19.0571L147.099 20.8309ZM149.061 22.7461C149.534 23.5696 149.792 24.5853 149.792 25.832H151.792C151.792 24.3054 151.475 22.9317 150.796 21.7499L149.061 22.7461ZM149.792 25.832V30.536H151.792V25.832H149.792ZM149.792 30.536C149.792 31.782 149.535 32.8124 149.057 33.6617L150.8 34.6423C151.474 33.4436 151.792 32.0633 151.792 30.536H149.792ZM149.053 33.6679C148.595 34.4973 147.95 35.1258 147.099 35.5691L148.022 37.3429C149.219 36.7195 150.153 35.8121 150.804 34.6361L149.053 33.6679ZM147.099 35.5691C146.245 36.0135 145.195 36.256 143.913 36.256V38.256C145.446 38.256 146.828 37.9651 148.022 37.3429L147.099 35.5691ZM143.913 35.696C145.363 35.696 146.626 35.285 147.564 34.3471L146.149 32.9329C145.679 33.403 144.98 33.696 143.913 33.696V35.696ZM147.564 34.3471C148.516 33.3947 148.913 32.0658 148.913 30.536H146.913C146.913 31.7368 146.605 32.4773 146.149 32.9329L147.564 34.3471ZM148.913 30.536V25.864H146.913V30.536H148.913ZM148.913 25.864C148.913 24.3342 148.516 23.0053 147.564 22.0529L146.149 23.4671C146.605 23.9227 146.913 24.6632 146.913 25.864H148.913ZM147.564 22.0529C146.626 21.115 145.363 20.704 143.913 20.704V22.704C144.98 22.704 145.679 22.997 146.149 23.4671L147.564 22.0529ZM143.913 20.704C142.477 20.704 141.224 21.1185 140.272 22.0424L141.665 23.4776C142.164 22.9935 142.874 22.704 143.913 22.704V20.704ZM140.261 22.0529C139.309 23.0053 138.913 24.3342 138.913 25.864H140.913C140.913 24.6632 141.22 23.9227 141.676 23.4671L140.261 22.0529ZM138.913 25.864V30.536H140.913V25.864H138.913ZM138.913 30.536C138.913 32.0658 139.309 33.3947 140.261 34.3471L141.676 32.9329C141.22 32.4773 140.913 31.7368 140.913 30.536H138.913ZM140.272 34.3576C141.224 35.2815 142.477 35.696 143.913 35.696V33.696C142.874 33.696 142.164 33.4065 141.665 32.9224L140.272 34.3576ZM159.452 36.456L158.99 37.3429L159.452 36.456ZM157.052 34.152L156.173 34.6283L156.179 34.6393L156.185 34.6501L157.052 34.152ZM157.052 22.248L156.185 21.7499L156.181 21.7569L156.177 21.7639L157.052 22.248ZM159.452 19.944L158.99 19.0571L159.452 19.944ZM166.748 19.944L167.21 19.0571V19.0571L166.748 19.944ZM169.116 22.248L168.241 22.7321L168.245 22.7391L168.249 22.7461L169.116 22.248ZM169.116 34.152L168.244 33.6617L168.241 33.6679L169.116 34.152ZM166.748 36.456L167.21 37.3429L166.748 36.456ZM166.044 33.64L166.751 34.3471L166.044 33.64ZM160.156 22.76L159.46 22.0424L159.454 22.0476L159.449 22.0529L160.156 22.76ZM160.156 33.64L159.449 34.3471L159.454 34.3524L159.46 34.3576L160.156 33.64ZM163.1 36.256C161.818 36.256 160.767 36.0135 159.914 35.5691L158.99 37.3429C160.185 37.9651 161.566 38.256 163.1 38.256V36.256ZM159.914 35.5691C159.06 35.1241 158.4 34.4912 157.919 33.6539L156.185 34.6501C156.856 35.8182 157.796 36.7212 158.99 37.3429L159.914 35.5691ZM157.931 33.6757C157.47 32.8235 157.22 31.788 157.22 30.536H155.22C155.22 32.0573 155.525 33.4325 156.173 34.6283L157.931 33.6757ZM157.22 30.536V25.864H155.22V30.536H157.22ZM157.22 25.864C157.22 24.587 157.471 23.5563 157.927 22.7321L156.177 21.7639C155.524 22.9451 155.22 24.325 155.22 25.864H157.22ZM157.919 22.7461C158.4 21.9088 159.06 21.2759 159.914 20.8309L158.99 19.0571C157.796 19.6788 156.856 20.5818 156.185 21.7499L157.919 22.7461ZM159.914 20.8309C160.767 20.3865 161.818 20.144 163.1 20.144V18.144C161.566 18.144 160.185 18.4349 158.99 19.0571L159.914 20.8309ZM163.1 20.144C164.382 20.144 165.433 20.3865 166.286 20.8309L167.21 19.0571C166.015 18.4349 164.634 18.144 163.1 18.144V20.144ZM166.286 20.8309C167.137 21.2742 167.782 21.9027 168.241 22.7321L169.991 21.7639C169.34 20.5879 168.407 19.6805 167.21 19.0571L166.286 20.8309ZM168.249 22.7461C168.722 23.5696 168.98 24.5853 168.98 25.832H170.98C170.98 24.3054 170.662 22.9317 169.983 21.7499L168.249 22.7461ZM168.98 25.832V30.536H170.98V25.832H168.98ZM168.98 30.536C168.98 31.782 168.722 32.8124 168.244 33.6617L169.988 34.6423C170.662 33.4436 170.98 32.0633 170.98 30.536H168.98ZM168.241 33.6679C167.782 34.4973 167.137 35.1258 166.286 35.5691L167.21 37.3429C168.407 36.7195 169.34 35.8121 169.991 34.6361L168.241 33.6679ZM166.286 35.5691C165.433 36.0135 164.382 36.256 163.1 36.256V38.256C164.634 38.256 166.015 37.9651 167.21 37.3429L166.286 35.5691ZM163.1 35.696C164.55 35.696 165.813 35.285 166.751 34.3471L165.337 32.9329C164.867 33.403 164.167 33.696 163.1 33.696V35.696ZM166.751 34.3471C167.704 33.3947 168.1 32.0658 168.1 30.536H166.1C166.1 31.7368 165.792 32.4773 165.337 32.9329L166.751 34.3471ZM168.1 30.536V25.864H166.1V30.536H168.1ZM168.1 25.864C168.1 24.3342 167.704 23.0053 166.751 22.0529L165.337 23.4671C165.792 23.9227 166.1 24.6632 166.1 25.864H168.1ZM166.751 22.0529C165.813 21.115 164.55 20.704 163.1 20.704V22.704C164.167 22.704 164.867 22.997 165.337 23.4671L166.751 22.0529ZM163.1 20.704C161.664 20.704 160.411 21.1185 159.46 22.0424L160.852 23.4776C161.351 22.9935 162.061 22.704 163.1 22.704V20.704ZM159.449 22.0529C158.496 23.0053 158.1 24.3342 158.1 25.864H160.1C160.1 24.6632 160.408 23.9227 160.863 23.4671L159.449 22.0529ZM158.1 25.864V30.536H160.1V25.864H158.1ZM158.1 30.536C158.1 32.0658 158.496 33.3947 159.449 34.3471L160.863 32.9329C160.408 32.4773 160.1 31.7368 160.1 30.536H158.1ZM159.46 34.3576C160.411 35.2815 161.664 35.696 163.1 35.696V33.696C162.061 33.696 161.351 33.4065 160.852 32.9224L159.46 34.3576ZM181.999 36.392L181.533 37.2764L181.999 36.392ZM180.208 34.664L181.076 34.1679L180.208 34.664ZM179.568 16.264H180.568V15.264H179.568V16.264ZM173.648 16.264H172.648V17.264H173.648V16.264ZM173.648 13.64V12.64H172.648V13.64H173.648ZM182.447 13.64H183.447V12.64H182.447V13.64ZM183.055 33.768L182.331 34.4567L182.339 34.466L182.348 34.4751L183.055 33.768ZM190.288 34.376H191.288V33.376H190.288V34.376ZM190.288 37V38H191.288V37H190.288ZM184.688 36C183.797 36 183.067 35.8245 182.466 35.5076L181.533 37.2764C182.468 37.7702 183.53 38 184.688 38V36ZM182.466 35.5076C181.865 35.19 181.407 34.7479 181.076 34.1679L179.339 35.1601C179.861 36.0734 180.598 36.7833 181.533 37.2764L182.466 35.5076ZM181.076 34.1679C180.749 33.5957 180.568 32.8978 180.568 32.04H178.568C178.568 33.1876 178.813 34.2389 179.339 35.1601L181.076 34.1679ZM180.568 32.04V16.264H178.568V32.04H180.568ZM179.568 15.264H173.648V17.264H179.568V15.264ZM174.648 16.264V13.64H172.648V16.264H174.648ZM173.648 14.64H182.447V12.64H173.648V14.64ZM181.447 13.64V32.04H183.447V13.64H181.447ZM181.447 32.04C181.447 32.9589 181.71 33.8032 182.331 34.4567L183.781 33.0793C183.591 32.8794 183.447 32.5717 183.447 32.04H181.447ZM182.348 34.4751C182.976 35.1032 183.794 35.376 184.688 35.376V33.376C184.216 33.376 183.945 33.2435 183.763 33.0609L182.348 34.4751ZM184.688 35.376H190.288V33.376H184.688V35.376ZM189.288 34.376V37H191.288V34.376H189.288ZM190.288 36H184.688V38H190.288V36ZM196.195 35.56L195.455 36.2327L195.462 36.2399L196.195 35.56ZM196.195 20.84L196.935 21.5127L196.195 20.84ZM203.939 20.264L203.269 21.0064L203.939 20.264ZM205.251 23.432L204.492 24.0828L206.251 26.1353V23.432H205.251ZM204.675 22.76V21.76H202.501L203.916 23.4108L204.675 22.76ZM205.315 22.76V23.76H206.331L206.315 22.744L205.315 22.76ZM205.251 18.76H204.251V18.768L204.251 18.776L205.251 18.76ZM205.251 13.64V12.64H204.251V13.64H205.251ZM208.131 13.64H209.131V12.64H208.131V13.64ZM208.131 37V38H209.131V37H208.131ZM205.251 37H204.251V38H205.251V37ZM205.251 33.64H206.251V32.64H205.251V33.64ZM204.675 33.64L203.916 32.9892L202.501 34.64H204.675V33.64ZM205.251 32.968H206.251V30.2647L204.492 32.3172L205.251 32.968ZM203.939 36.168L204.599 36.9195L204.609 36.9104L203.939 36.168ZM204.227 33.704L203.489 33.0292L204.227 33.704ZM198.531 22.664L199.249 23.3605L198.531 22.664ZM198.531 33.736L197.813 34.4325L198.531 33.736ZM200.451 36.32C198.951 36.32 197.808 35.829 196.928 34.8801L195.462 36.2399C196.758 37.6376 198.452 38.32 200.451 38.32V36.32ZM196.935 34.8873C196.076 33.943 195.595 32.6168 195.595 30.792H193.595C193.595 32.9778 194.18 34.8303 195.455 36.2327L196.935 34.8873ZM195.595 30.792V25.64H193.595V30.792H195.595ZM195.595 25.64C195.595 23.7906 196.078 22.4551 196.935 21.5127L195.455 20.1673C194.178 21.5716 193.595 23.4361 193.595 25.64H195.595ZM196.935 21.5127C197.789 20.5734 198.926 20.08 200.451 20.08V18.08C198.435 18.08 196.734 18.76 195.455 20.1673L196.935 21.5127ZM200.451 20.08C201.714 20.08 202.618 20.419 203.269 21.0064L204.609 19.5216C203.51 18.5303 202.089 18.08 200.451 18.08V20.08ZM203.269 21.0064C203.907 21.5817 204.251 22.3538 204.251 23.432H206.251C206.251 21.8649 205.721 20.5249 204.609 19.5216L203.269 21.0064ZM206.01 22.7812L205.434 22.1092L203.916 23.4108L204.492 24.0828L206.01 22.7812ZM204.675 23.76H205.315V21.76H204.675V23.76ZM206.315 22.744L206.251 18.744L204.251 18.776L204.315 22.776L206.315 22.744ZM206.251 18.76V13.64H204.251V18.76H206.251ZM205.251 14.64H208.131V12.64H205.251V14.64ZM207.131 13.64V37H209.131V13.64H207.131ZM208.131 36H205.251V38H208.131V36ZM206.251 37V33.64H204.251V37H206.251ZM205.251 32.64H204.675V34.64H205.251V32.64ZM205.434 34.2908L206.01 33.6188L204.492 32.3172L203.916 32.9892L205.434 34.2908ZM204.251 32.968C204.251 34.073 203.903 34.8535 203.269 35.4256L204.609 36.9104C205.724 35.9038 206.251 34.551 206.251 32.968H204.251ZM203.279 35.4166C202.629 35.9877 201.721 36.32 200.451 36.32V38.32C202.082 38.32 203.5 37.8843 204.599 36.9194L203.279 35.4166ZM201.411 35.824C202.831 35.824 204.059 35.3703 204.965 34.3788L203.489 33.0292C203.03 33.531 202.38 33.824 201.411 33.824V35.824ZM204.965 34.3788C205.863 33.3969 206.251 32.0936 206.251 30.6H204.251C204.251 31.7517 203.957 32.5178 203.489 33.0292L204.965 34.3788ZM206.251 30.6V25.8H204.251V30.6H206.251ZM206.251 25.8C206.251 24.3064 205.863 23.0031 204.965 22.0212L203.489 23.3708C203.957 23.8822 204.251 24.6483 204.251 25.8H206.251ZM204.965 22.0212C204.059 21.0297 202.831 20.576 201.411 20.576V22.576C202.38 22.576 203.03 22.869 203.489 23.3708L204.965 22.0212ZM201.411 20.576C199.984 20.576 198.743 21.0096 197.813 21.9675L199.249 23.3605C199.727 22.8678 200.406 22.576 201.411 22.576V20.576ZM197.813 21.9675C196.872 22.9372 196.475 24.268 196.475 25.8H198.475C198.475 24.6013 198.782 23.8415 199.249 23.3605L197.813 21.9675ZM196.475 25.8V30.6H198.475V25.8H196.475ZM196.475 30.6C196.475 32.132 196.872 33.4628 197.813 34.4325L199.249 33.0395C198.782 32.5585 198.475 31.7987 198.475 30.6H196.475ZM197.813 34.4325C198.743 35.3904 199.984 35.824 201.411 35.824V33.824C200.406 33.824 199.727 33.5322 199.249 33.0395L197.813 34.4325Z" fill="black" mask="url(#path-2-outside-1_18_24)"/>
</svg>
