<svg width="221" height="43" viewBox="0 0 221 43" fill="none" xmlns="http://www.w3.org/2000/svg">
<path d="M33.176 31.192C31.4907 31.192 29.976 30.8187 28.632 30.072C27.288 29.3253 26.232 28.3013 25.464 27C24.7173 25.6773 24.344 24.184 24.344 22.52C24.344 20.856 24.7173 19.3733 25.464 18.072C26.232 16.7493 27.288 15.7253 28.632 15C29.976 14.2533 31.4907 13.88 33.176 13.88C34.8613 13.88 36.3653 14.2533 37.688 15C39.032 15.7253 40.0773 16.7493 40.824 18.072C41.592 19.3733 41.976 20.856 41.976 22.52C41.976 24.184 41.592 25.6773 40.824 27C40.0773 28.3013 39.032 29.3253 37.688 30.072C36.3653 30.8187 34.8613 31.192 33.176 31.192ZM33.176 28.504C34.264 28.504 35.2347 28.2587 36.088 27.768C36.9627 27.256 37.6453 26.552 38.136 25.656C38.6267 24.7387 38.872 23.6933 38.872 22.52C38.872 21.3467 38.6267 20.312 38.136 19.416C37.6453 18.4987 36.9627 17.7947 36.088 17.304C35.2347 16.8133 34.264 16.568 33.176 16.568C32.088 16.568 31.1067 16.8133 30.232 17.304C29.3787 17.7947 28.696 18.4987 28.184 19.416C27.6933 20.312 27.448 21.3467 27.448 22.52C27.448 23.6933 27.6933 24.7387 28.184 25.656C28.696 26.552 29.3787 27.256 30.232 27.768C31.1067 28.2587 32.088 28.504 33.176 28.504ZM53.4885 31.192C51.8032 31.192 50.2885 30.8187 48.9445 30.072C47.6005 29.3253 46.5445 28.3013 45.7765 27C45.0298 25.6773 44.6565 24.184 44.6565 22.52C44.6565 20.856 45.0298 19.3733 45.7765 18.072C46.5445 16.7493 47.6005 15.7253 48.9445 15C50.2885 14.2533 51.8032 13.88 53.4885 13.88C55.1738 13.88 56.6778 14.2533 58.0005 15C59.3445 15.7253 60.3898 16.7493 61.1365 18.072C61.9045 19.3733 62.2885 20.856 62.2885 22.52C62.2885 24.184 61.9045 25.6773 61.1365 27C60.3898 28.3013 59.3445 29.3253 58.0005 30.072C56.6778 30.8187 55.1738 31.192 53.4885 31.192ZM53.4885 28.504C54.5765 28.504 55.5472 28.2587 56.4005 27.768C57.2752 27.256 57.9578 26.552 58.4485 25.656C58.9392 24.7387 59.1845 23.6933 59.1845 22.52C59.1845 21.3467 58.9392 20.312 58.4485 19.416C57.9578 18.4987 57.2752 17.7947 56.4005 17.304C55.5472 16.8133 54.5765 16.568 53.4885 16.568C52.4005 16.568 51.4192 16.8133 50.5445 17.304C49.6912 17.7947 49.0085 18.4987 48.4965 19.416C48.0058 20.312 47.7605 21.3467 47.7605 22.52C47.7605 23.6933 48.0058 24.7387 48.4965 25.656C49.0085 26.552 49.6912 27.256 50.5445 27.768C51.4192 28.2587 52.4005 28.504 53.4885 28.504ZM73.801 31.192C72.1157 31.192 70.601 30.8187 69.257 30.072C67.913 29.3253 66.857 28.3013 66.089 27C65.3423 25.6773 64.969 24.184 64.969 22.52C64.969 20.856 65.3423 19.3733 66.089 18.072C66.857 16.7493 67.913 15.7253 69.257 15C70.601 14.2533 72.1157 13.88 73.801 13.88C75.4863 13.88 76.9903 14.2533 78.313 15C79.657 15.7253 80.7023 16.7493 81.449 18.072C82.217 19.3733 82.601 20.856 82.601 22.52C82.601 24.184 82.217 25.6773 81.449 27C80.7023 28.3013 79.657 29.3253 78.313 30.072C76.9903 30.8187 75.4863 31.192 73.801 31.192ZM73.801 28.504C74.889 28.504 75.8597 28.2587 76.713 27.768C77.5877 27.256 78.2703 26.552 78.761 25.656C79.2517 24.7387 79.497 23.6933 79.497 22.52C79.497 21.3467 79.2517 20.312 78.761 19.416C78.2703 18.4987 77.5877 17.7947 76.713 17.304C75.8597 16.8133 74.889 16.568 73.801 16.568C72.713 16.568 71.7317 16.8133 70.857 17.304C70.0037 17.7947 69.321 18.4987 68.809 19.416C68.3183 20.312 68.073 21.3467 68.073 22.52C68.073 23.6933 68.3183 24.7387 68.809 25.656C69.321 26.552 70.0037 27.256 70.857 27.768C71.7317 28.2587 72.713 28.504 73.801 28.504ZM94.1135 31.192C92.4282 31.192 90.9135 30.8187 89.5695 30.072C88.2255 29.3253 87.1695 28.3013 86.4015 27C85.6548 25.6773 85.2815 24.184 85.2815 22.52C85.2815 20.856 85.6548 19.3733 86.4015 18.072C87.1695 16.7493 88.2255 15.7253 89.5695 15C90.9135 14.2533 92.4282 13.88 94.1135 13.88C95.7988 13.88 97.3028 14.2533 98.6255 15C99.9695 15.7253 101.015 16.7493 101.762 18.072C102.53 19.3733 102.914 20.856 102.914 22.52C102.914 24.184 102.53 25.6773 101.762 27C101.015 28.3013 99.9695 29.3253 98.6255 30.072C97.3028 30.8187 95.7988 31.192 94.1135 31.192ZM94.1135 28.504C95.2015 28.504 96.1722 28.2587 97.0255 27.768C97.9002 27.256 98.5828 26.552 99.0735 25.656C99.5642 24.7387 99.8095 23.6933 99.8095 22.52C99.8095 21.3467 99.5642 20.312 99.0735 19.416C98.5828 18.4987 97.9002 17.7947 97.0255 17.304C96.1722 16.8133 95.2015 16.568 94.1135 16.568C93.0255 16.568 92.0442 16.8133 91.1695 17.304C90.3162 17.7947 89.6335 18.4987 89.1215 19.416C88.6308 20.312 88.3855 21.3467 88.3855 22.52C88.3855 23.6933 88.6308 24.7387 89.1215 25.656C89.6335 26.552 90.3162 27.256 91.1695 27.768C92.0442 28.2587 93.0255 28.504 94.1135 28.504ZM114.426 31.192C112.741 31.192 111.226 30.8187 109.882 30.072C108.538 29.3253 107.482 28.3013 106.714 27C105.967 25.6773 105.594 24.184 105.594 22.52C105.594 20.856 105.967 19.3733 106.714 18.072C107.482 16.7493 108.538 15.7253 109.882 15C111.226 14.2533 112.741 13.88 114.426 13.88C116.111 13.88 117.615 14.2533 118.938 15C120.282 15.7253 121.327 16.7493 122.074 18.072C122.842 19.3733 123.226 20.856 123.226 22.52C123.226 24.184 122.842 25.6773 122.074 27C121.327 28.3013 120.282 29.3253 118.938 30.072C117.615 30.8187 116.111 31.192 114.426 31.192ZM114.426 28.504C115.514 28.504 116.485 28.2587 117.338 27.768C118.213 27.256 118.895 26.552 119.386 25.656C119.877 24.7387 120.122 23.6933 120.122 22.52C120.122 21.3467 119.877 20.312 119.386 19.416C118.895 18.4987 118.213 17.7947 117.338 17.304C116.485 16.8133 115.514 16.568 114.426 16.568C113.338 16.568 112.357 16.8133 111.482 17.304C110.629 17.7947 109.946 18.4987 109.434 19.416C108.943 20.312 108.698 21.3467 108.698 22.52C108.698 23.6933 108.943 24.7387 109.434 25.656C109.946 26.552 110.629 27.256 111.482 27.768C112.357 28.2587 113.338 28.504 114.426 28.504ZM134.739 31.192C133.053 31.192 131.539 30.8187 130.195 30.072C128.851 29.3253 127.795 28.3013 127.027 27C126.28 25.6773 125.907 24.184 125.907 22.52C125.907 20.856 126.28 19.3733 127.027 18.072C127.795 16.7493 128.851 15.7253 130.195 15C131.539 14.2533 133.053 13.88 134.739 13.88C136.424 13.88 137.928 14.2533 139.251 15C140.595 15.7253 141.64 16.7493 142.387 18.072C143.155 19.3733 143.539 20.856 143.539 22.52C143.539 24.184 143.155 25.6773 142.387 27C141.64 28.3013 140.595 29.3253 139.251 30.072C137.928 30.8187 136.424 31.192 134.739 31.192ZM134.739 28.504C135.827 28.504 136.797 28.2587 137.651 27.768C138.525 27.256 139.208 26.552 139.699 25.656C140.189 24.7387 140.435 23.6933 140.435 22.52C140.435 21.3467 140.189 20.312 139.699 19.416C139.208 18.4987 138.525 17.7947 137.651 17.304C136.797 16.8133 135.827 16.568 134.739 16.568C133.651 16.568 132.669 16.8133 131.795 17.304C130.941 17.7947 130.259 18.4987 129.747 19.416C129.256 20.312 129.011 21.3467 129.011 22.52C129.011 23.6933 129.256 24.7387 129.747 25.656C130.259 26.552 130.941 27.256 131.795 27.768C132.669 28.2587 133.651 28.504 134.739 28.504ZM155.051 31.192C153.366 31.192 151.851 30.8187 150.507 30.072C149.163 29.3253 148.107 28.3013 147.339 27C146.592 25.6773 146.219 24.184 146.219 22.52C146.219 20.856 146.592 19.3733 147.339 18.072C148.107 16.7493 149.163 15.7253 150.507 15C151.851 14.2533 153.366 13.88 155.051 13.88C156.736 13.88 158.24 14.2533 159.563 15C160.907 15.7253 161.952 16.7493 162.699 18.072C163.467 19.3733 163.851 20.856 163.851 22.52C163.851 24.184 163.467 25.6773 162.699 27C161.952 28.3013 160.907 29.3253 159.563 30.072C158.24 30.8187 156.736 31.192 155.051 31.192ZM155.051 28.504C156.139 28.504 157.11 28.2587 157.963 27.768C158.838 27.256 159.52 26.552 160.011 25.656C160.502 24.7387 160.747 23.6933 160.747 22.52C160.747 21.3467 160.502 20.312 160.011 19.416C159.52 18.4987 158.838 17.7947 157.963 17.304C157.11 16.8133 156.139 16.568 155.051 16.568C153.963 16.568 152.982 16.8133 152.107 17.304C151.254 17.7947 150.571 18.4987 150.059 19.416C149.568 20.312 149.323 21.3467 149.323 22.52C149.323 23.6933 149.568 24.7387 150.059 25.656C150.571 26.552 151.254 27.256 152.107 27.768C152.982 28.2587 153.963 28.504 155.051 28.504ZM175.364 31.192C173.678 31.192 172.164 30.8187 170.82 30.072C169.476 29.3253 168.42 28.3013 167.652 27C166.905 25.6773 166.532 24.184 166.532 22.52C166.532 20.856 166.905 19.3733 167.652 18.072C168.42 16.7493 169.476 15.7253 170.82 15C172.164 14.2533 173.678 13.88 175.364 13.88C177.049 13.88 178.553 14.2533 179.876 15C181.22 15.7253 182.265 16.7493 183.012 18.072C183.78 19.3733 184.164 20.856 184.164 22.52C184.164 24.184 183.78 25.6773 183.012 27C182.265 28.3013 181.22 29.3253 179.876 30.072C178.553 30.8187 177.049 31.192 175.364 31.192ZM175.364 28.504C176.452 28.504 177.422 28.2587 178.276 27.768C179.15 27.256 179.833 26.552 180.324 25.656C180.814 24.7387 181.06 23.6933 181.06 22.52C181.06 21.3467 180.814 20.312 180.324 19.416C179.833 18.4987 179.15 17.7947 178.276 17.304C177.422 16.8133 176.452 16.568 175.364 16.568C174.276 16.568 173.294 16.8133 172.42 17.304C171.566 17.7947 170.884 18.4987 170.372 19.416C169.881 20.312 169.636 21.3467 169.636 22.52C169.636 23.6933 169.881 24.7387 170.372 25.656C170.884 26.552 171.566 27.256 172.42 27.768C173.294 28.2587 174.276 28.504 175.364 28.504Z" fill="#5F85B1"/>
<mask id="path-2-outside-1_18_24" maskUnits="userSpaceOnUse" x="2" y="10" width="217" height="27" fill="black">
<rect fill="white" x="2" y="10" width="217" height="27"/>
<path d="M22.624 12.6V35H19.424V25.016H6.56V35H3.36V12.6H6.56V22.232H19.424V12.6H22.624ZM36.1448 35.192C34.4594 35.192 32.9448 34.8187 31.6008 34.072C30.2568 33.3253 29.2008 32.3013 28.4328 31C27.6861 29.6773 27.3128 28.184 27.3128 26.52C27.3128 24.856 27.6861 23.3733 28.4328 22.072C29.2008 20.7493 30.2568 19.7253 31.6008 19C32.9448 18.2533 34.4594 17.88 36.1448 17.88C37.8301 17.88 39.3341 18.2533 40.6568 19C42.0008 19.7253 43.0461 20.7493 43.7928 22.072C44.5608 23.3733 44.9448 24.856 44.9448 26.52C44.9448 28.184 44.5608 29.6773 43.7928 31C43.0461 32.3013 42.0008 33.3253 40.6568 34.072C39.3341 34.8187 37.8301 35.192 36.1448 35.192ZM36.1448 32.504C37.2328 32.504 38.2034 32.2587 39.0568 31.768C39.9314 31.256 40.6141 30.552 41.1048 29.656C41.5954 28.7387 41.8408 27.6933 41.8408 26.52C41.8408 25.3467 41.5954 24.312 41.1048 23.416C40.6141 22.4987 39.9314 21.7947 39.0568 21.304C38.2034 20.8133 37.2328 20.568 36.1448 20.568C35.0568 20.568 34.0754 20.8133 33.2008 21.304C32.3474 21.7947 31.6648 22.4987 31.1528 23.416C30.6621 24.312 30.4168 25.3467 30.4168 26.52C30.4168 27.6933 30.6621 28.7387 31.1528 29.656C31.6648 30.552 32.3474 31.256 33.2008 31.768C34.0754 32.2587 35.0568 32.504 36.1448 32.504ZM56.4573 35.192C54.7719 35.192 53.2573 34.8187 51.9133 34.072C50.5693 33.3253 49.5133 32.3013 48.7453 31C47.9986 29.6773 47.6253 28.184 47.6253 26.52C47.6253 24.856 47.9986 23.3733 48.7453 22.072C49.5133 20.7493 50.5693 19.7253 51.9133 19C53.2573 18.2533 54.7719 17.88 56.4573 17.88C58.1426 17.88 59.6466 18.2533 60.9693 19C62.3133 19.7253 63.3586 20.7493 64.1053 22.072C64.8733 23.3733 65.2573 24.856 65.2573 26.52C65.2573 28.184 64.8733 29.6773 64.1053 31C63.3586 32.3013 62.3133 33.3253 60.9693 34.072C59.6466 34.8187 58.1426 35.192 56.4573 35.192ZM56.4573 32.504C57.5453 32.504 58.5159 32.2587 59.3693 31.768C60.2439 31.256 60.9266 30.552 61.4173 29.656C61.9079 28.7387 62.1533 27.6933 62.1533 26.52C62.1533 25.3467 61.9079 24.312 61.4173 23.416C60.9266 22.4987 60.2439 21.7947 59.3693 21.304C58.5159 20.8133 57.5453 20.568 56.4573 20.568C55.3693 20.568 54.3879 20.8133 53.5133 21.304C52.6599 21.7947 51.9773 22.4987 51.4653 23.416C50.9746 24.312 50.7293 25.3467 50.7293 26.52C50.7293 27.6933 50.9746 28.7387 51.4653 29.656C51.9773 30.552 52.6599 31.256 53.5133 31.768C54.3879 32.2587 55.3693 32.504 56.4573 32.504ZM76.7698 35.192C75.0844 35.192 73.5698 34.8187 72.2258 34.072C70.8818 33.3253 69.8258 32.3013 69.0578 31C68.3111 29.6773 67.9378 28.184 67.9378 26.52C67.9378 24.856 68.3111 23.3733 69.0578 22.072C69.8258 20.7493 70.8818 19.7253 72.2258 19C73.5698 18.2533 75.0844 17.88 76.7698 17.88C78.4551 17.88 79.9591 18.2533 81.2818 19C82.6258 19.7253 83.6711 20.7493 84.4178 22.072C85.1858 23.3733 85.5698 24.856 85.5698 26.52C85.5698 28.184 85.1858 29.6773 84.4178 31C83.6711 32.3013 82.6258 33.3253 81.2818 34.072C79.9591 34.8187 78.4551 35.192 76.7698 35.192ZM76.7698 32.504C77.8578 32.504 78.8284 32.2587 79.6818 31.768C80.5564 31.256 81.2391 30.552 81.7298 29.656C82.2204 28.7387 82.4658 27.6933 82.4658 26.52C82.4658 25.3467 82.2204 24.312 81.7298 23.416C81.2391 22.4987 80.5564 21.7947 79.6818 21.304C78.8284 20.8133 77.8578 20.568 76.7698 20.568C75.6818 20.568 74.7004 20.8133 73.8258 21.304C72.9724 21.7947 72.2898 22.4987 71.7778 23.416C71.2871 24.312 71.0418 25.3467 71.0418 26.52C71.0418 27.6933 71.2871 28.7387 71.7778 29.656C72.2898 30.552 72.9724 31.256 73.8258 31.768C74.7004 32.2587 75.6818 32.504 76.7698 32.504ZM97.0823 35.192C95.3969 35.192 93.8823 34.8187 92.5383 34.072C91.1943 33.3253 90.1383 32.3013 89.3703 31C88.6236 29.6773 88.2503 28.184 88.2503 26.52C88.2503 24.856 88.6236 23.3733 89.3703 22.072C90.1383 20.7493 91.1943 19.7253 92.5383 19C93.8823 18.2533 95.3969 17.88 97.0823 17.88C98.7676 17.88 100.272 18.2533 101.594 19C102.938 19.7253 103.984 20.7493 104.73 22.072C105.498 23.3733 105.882 24.856 105.882 26.52C105.882 28.184 105.498 29.6773 104.73 31C103.984 32.3013 102.938 33.3253 101.594 34.072C100.272 34.8187 98.7676 35.192 97.0823 35.192ZM97.0823 32.504C98.1703 32.504 99.1409 32.2587 99.9943 31.768C100.869 31.256 101.552 30.552 102.042 29.656C102.533 28.7387 102.778 27.6933 102.778 26.52C102.778 25.3467 102.533 24.312 102.042 23.416C101.552 22.4987 100.869 21.7947 99.9943 21.304C99.1409 20.8133 98.1703 20.568 97.0823 20.568C95.9943 20.568 95.0129 20.8133 94.1383 21.304C93.2849 21.7947 92.6023 22.4987 92.0903 23.416C91.5996 24.312 91.3543 25.3467 91.3543 26.52C91.3543 27.6933 91.5996 28.7387 92.0903 29.656C92.6023 30.552 93.2849 31.256 94.1383 31.768C95.0129 32.2587 95.9943 32.504 97.0823 32.504ZM117.395 35.192C115.709 35.192 114.195 34.8187 112.851 34.072C111.507 33.3253 110.451 32.3013 109.683 31C108.936 29.6773 108.563 28.184 108.563 26.52C108.563 24.856 108.936 23.3733 109.683 22.072C110.451 20.7493 111.507 19.7253 112.851 19C114.195 18.2533 115.709 17.88 117.395 17.88C119.08 17.88 120.584 18.2533 121.907 19C123.251 19.7253 124.296 20.7493 125.043 22.072C125.811 23.3733 126.195 24.856 126.195 26.52C126.195 28.184 125.811 29.6773 125.043 31C124.296 32.3013 123.251 33.3253 121.907 34.072C120.584 34.8187 119.08 35.192 117.395 35.192ZM117.395 32.504C118.483 32.504 119.453 32.2587 120.307 31.768C121.181 31.256 121.864 30.552 122.355 29.656C122.845 28.7387 123.091 27.6933 123.091 26.52C123.091 25.3467 122.845 24.312 122.355 23.416C121.864 22.4987 121.181 21.7947 120.307 21.304C119.453 20.8133 118.483 20.568 117.395 20.568C116.307 20.568 115.325 20.8133 114.451 21.304C113.597 21.7947 112.915 22.4987 112.403 23.416C111.912 24.312 111.667 25.3467 111.667 26.52C111.667 27.6933 111.912 28.7387 112.403 29.656C112.915 30.552 113.597 31.256 114.451 31.768C115.325 32.2587 116.307 32.504 117.395 32.504ZM137.707 35.192C136.022 35.192 134.507 34.8187 133.163 34.072C131.819 33.3253 130.763 32.3013 129.995 31C129.249 29.6773 128.875 28.184 128.875 26.52C128.875 24.856 129.249 23.3733 129.995 22.072C130.763 20.7493 131.819 19.7253 133.163 19C134.507 18.2533 136.022 17.88 137.707 17.88C139.393 17.88 140.897 18.2533 142.219 19C143.563 19.7253 144.609 20.7493 145.355 22.072C146.123 23.3733 146.507 24.856 146.507 26.52C146.507 28.184 146.123 29.6773 145.355 31C144.609 32.3013 143.563 33.3253 142.219 34.072C140.897 34.8187 139.393 35.192 137.707 35.192ZM137.707 32.504C138.795 32.504 139.766 32.2587 140.619 31.768C141.494 31.256 142.177 30.552 142.667 29.656C143.158 28.7387 143.403 27.6933 143.403 26.52C143.403 25.3467 143.158 24.312 142.667 23.416C142.177 22.4987 141.494 21.7947 140.619 21.304C139.766 20.8133 138.795 20.568 137.707 20.568C136.619 20.568 135.638 20.8133 134.763 21.304C133.91 21.7947 133.227 22.4987 132.715 23.416C132.225 24.312 131.979 25.3467 131.979 26.52C131.979 27.6933 132.225 28.7387 132.715 29.656C133.227 30.552 133.91 31.256 134.763 31.768C135.638 32.2587 136.619 32.504 137.707 32.504ZM158.02 35.192C156.334 35.192 154.82 34.8187 153.476 34.072C152.132 33.3253 151.076 32.3013 150.308 31C149.561 29.6773 149.188 28.184 149.188 26.52C149.188 24.856 149.561 23.3733 150.308 22.072C151.076 20.7493 152.132 19.7253 153.476 19C154.82 18.2533 156.334 17.88 158.02 17.88C159.705 17.88 161.209 18.2533 162.532 19C163.876 19.7253 164.921 20.7493 165.668 22.072C166.436 23.3733 166.82 24.856 166.82 26.52C166.82 28.184 166.436 29.6773 165.668 31C164.921 32.3013 163.876 33.3253 162.532 34.072C161.209 34.8187 159.705 35.192 158.02 35.192ZM158.02 32.504C159.108 32.504 160.078 32.2587 160.932 31.768C161.806 31.256 162.489 30.552 162.98 29.656C163.47 28.7387 163.716 27.6933 163.716 26.52C163.716 25.3467 163.47 24.312 162.98 23.416C162.489 22.4987 161.806 21.7947 160.932 21.304C160.078 20.8133 159.108 20.568 158.02 20.568C156.932 20.568 155.95 20.8133 155.076 21.304C154.222 21.7947 153.54 22.4987 153.028 23.416C152.537 24.312 152.292 25.3467 152.292 26.52C152.292 27.6933 152.537 28.7387 153.028 29.656C153.54 30.552 154.222 31.256 155.076 31.768C155.95 32.2587 156.932 32.504 158.02 32.504ZM178.332 35.192C176.647 35.192 175.132 34.8187 173.788 34.072C172.444 33.3253 171.388 32.3013 170.62 31C169.874 29.6773 169.5 28.184 169.5 26.52C169.5 24.856 169.874 23.3733 170.62 22.072C171.388 20.7493 172.444 19.7253 173.788 19C175.132 18.2533 176.647 17.88 178.332 17.88C180.018 17.88 181.522 18.2533 182.844 19C184.188 19.7253 185.234 20.7493 185.98 22.072C186.748 23.3733 187.132 24.856 187.132 26.52C187.132 28.184 186.748 29.6773 185.98 31C185.234 32.3013 184.188 33.3253 182.844 34.072C181.522 34.8187 180.018 35.192 178.332 35.192ZM178.332 32.504C179.42 32.504 180.391 32.2587 181.244 31.768C182.119 31.256 182.802 30.552 183.292 29.656C183.783 28.7387 184.028 27.6933 184.028 26.52C184.028 25.3467 183.783 24.312 183.292 23.416C182.802 22.4987 182.119 21.7947 181.244 21.304C180.391 20.8133 179.42 20.568 178.332 20.568C177.244 20.568 176.263 20.8133 175.388 21.304C174.535 21.7947 173.852 22.4987 173.34 23.416C172.85 24.312 172.604 25.3467 172.604 26.52C172.604 27.6933 172.85 28.7387 173.34 29.656C173.852 30.552 174.535 31.256 175.388 31.768C176.263 32.2587 177.244 32.504 178.332 32.504ZM196.533 35.192C194.89 35.192 193.621 34.744 192.725 33.848C191.829 32.9307 191.381 31.6507 191.381 30.008V11.256H194.453V29.752C194.453 30.6693 194.666 31.3733 195.093 31.864C195.541 32.3547 196.202 32.6 197.077 32.6C197.61 32.6 198.111 32.4933 198.581 32.28L198.741 34.808C198.037 35.064 197.301 35.192 196.533 35.192ZM217.35 11.256V35H214.406V32.312C213.723 33.2507 212.859 33.9653 211.814 34.456C210.768 34.9467 209.616 35.192 208.358 35.192C206.715 35.192 205.243 34.8293 203.942 34.104C202.64 33.3787 201.616 32.3653 200.87 31.064C200.144 29.7413 199.782 28.2267 199.782 26.52C199.782 24.8133 200.144 23.3093 200.87 22.008C201.616 20.7067 202.64 19.6933 203.942 18.968C205.243 18.2427 206.715 17.88 208.358 17.88C209.574 17.88 210.694 18.1147 211.718 18.584C212.742 19.032 213.595 19.704 214.278 20.6V11.256H217.35ZM208.614 32.504C209.68 32.504 210.651 32.2587 211.526 31.768C212.4 31.256 213.083 30.552 213.574 29.656C214.064 28.7387 214.31 27.6933 214.31 26.52C214.31 25.3467 214.064 24.312 213.574 23.416C213.083 22.4987 212.4 21.7947 211.526 21.304C210.651 20.8133 209.68 20.568 208.614 20.568C207.526 20.568 206.544 20.8133 205.67 21.304C204.816 21.7947 204.134 22.4987 203.622 23.416C203.131 24.312 202.886 25.3467 202.886 26.52C202.886 27.6933 203.131 28.7387 203.622 29.656C204.134 30.552 204.816 31.256 205.67 31.768C206.544 32.2587 207.526 32.504 208.614 32.504Z"/>
</mask>
<path d="M22.624 12.6V35H19.424V25.016H6.56V35H3.36V12.6H6.56V22.232H19.424V12.6H22.624ZM36.1448 35.192C34.4594 35.192 32.9448 34.8187 31.6008 34.072C30.2568 33.3253 29.2008 32.3013 28.4328 31C27.6861 29.6773 27.3128 28.184 27.3128 26.52C27.3128 24.856 27.6861 23.3733 28.4328 22.072C29.2008 20.7493 30.2568 19.7253 31.6008 19C32.9448 18.2533 34.4594 17.88 36.1448 17.88C37.8301 17.88 39.3341 18.2533 40.6568 19C42.0008 19.7253 43.0461 20.7493 43.7928 22.072C44.5608 23.3733 44.9448 24.856 44.9448 26.52C44.9448 28.184 44.5608 29.6773 43.7928 31C43.0461 32.3013 42.0008 33.3253 40.6568 34.072C39.3341 34.8187 37.8301 35.192 36.1448 35.192ZM36.1448 32.504C37.2328 32.504 38.2034 32.2587 39.0568 31.768C39.9314 31.256 40.6141 30.552 41.1048 29.656C41.5954 28.7387 41.8408 27.6933 41.8408 26.52C41.8408 25.3467 41.5954 24.312 41.1048 23.416C40.6141 22.4987 39.9314 21.7947 39.0568 21.304C38.2034 20.8133 37.2328 20.568 36.1448 20.568C35.0568 20.568 34.0754 20.8133 33.2008 21.304C32.3474 21.7947 31.6648 22.4987 31.1528 23.416C30.6621 24.312 30.4168 25.3467 30.4168 26.52C30.4168 27.6933 30.6621 28.7387 31.1528 29.656C31.6648 30.552 32.3474 31.256 33.2008 31.768C34.0754 32.2587 35.0568 32.504 36.1448 32.504ZM56.4573 35.192C54.7719 35.192 53.2573 34.8187 51.9133 34.072C50.5693 33.3253 49.5133 32.3013 48.7453 31C47.9986 29.6773 47.6253 28.184 47.6253 26.52C47.6253 24.856 47.9986 23.3733 48.7453 22.072C49.5133 20.7493 50.5693 19.7253 51.9133 19C53.2573 18.2533 54.7719 17.88 56.4573 17.88C58.1426 17.88 59.6466 18.2533 60.9693 19C62.3133 19.7253 63.3586 20.7493 64.1053 22.072C64.8733 23.3733 65.2573 24.856 65.2573 26.52C65.2573 28.184 64.8733 29.6773 64.1053 31C63.3586 32.3013 62.3133 33.3253 60.9693 34.072C59.6466 34.8187 58.1426 35.192 56.4573 35.192ZM56.4573 32.504C57.5453 32.504 58.5159 32.2587 59.3693 31.768C60.2439 31.256 60.9266 30.552 61.4173 29.656C61.9079 28.7387 62.1533 27.6933 62.1533 26.52C62.1533 25.3467 61.9079 24.312 61.4173 23.416C60.9266 22.4987 60.2439 21.7947 59.3693 21.304C58.5159 20.8133 57.5453 20.568 56.4573 20.568C55.3693 20.568 54.3879 20.8133 53.5133 21.304C52.6599 21.7947 51.9773 22.4987 51.4653 23.416C50.9746 24.312 50.7293 25.3467 50.7293 26.52C50.7293 27.6933 50.9746 28.7387 51.4653 29.656C51.9773 30.552 52.6599 31.256 53.5133 31.768C54.3879 32.2587 55.3693 32.504 56.4573 32.504ZM76.7698 35.192C75.0844 35.192 73.5698 34.8187 72.2258 34.072C70.8818 33.3253 69.8258 32.3013 69.0578 31C68.3111 29.6773 67.9378 28.184 67.9378 26.52C67.9378 24.856 68.3111 23.3733 69.0578 22.072C69.8258 20.7493 70.8818 19.7253 72.2258 19C73.5698 18.2533 75.0844 17.88 76.7698 17.88C78.4551 17.88 79.9591 18.2533 81.2818 19C82.6258 19.7253 83.6711 20.7493 84.4178 22.072C85.1858 23.3733 85.5698 24.856 85.5698 26.52C85.5698 28.184 85.1858 29.6773 84.4178 31C83.6711 32.3013 82.6258 33.3253 81.2818 34.072C79.9591 34.8187 78.4551 35.192 76.7698 35.192ZM76.7698 32.504C77.8578 32.504 78.8284 32.2587 79.6818 31.768C80.5564 31.256 81.2391 30.552 81.7298 29.656C82.2204 28.7387 82.4658 27.6933 82.4658 26.52C82.4658 25.3467 82.2204 24.312 81.7298 23.416C81.2391 22.4987 80.5564 21.7947 79.6818 21.304C78.8284 20.8133 77.8578 20.568 76.7698 20.568C75.6818 20.568 74.7004 20.8133 73.8258 21.304C72.9724 21.7947 72.2898 22.4987 71.7778 23.416C71.2871 24.312 71.0418 25.3467 71.0418 26.52C71.0418 27.6933 71.2871 28.7387 71.7778 29.656C72.2898 30.552 72.9724 31.256 73.8258 31.768C74.7004 32.2587 75.6818 32.504 76.7698 32.504ZM97.0823 35.192C95.3969 35.192 93.8823 34.8187 92.5383 34.072C91.1943 33.3253 90.1383 32.3013 89.3703 31C88.6236 29.6773 88.2503 28.184 88.2503 26.52C88.2503 24.856 88.6236 23.3733 89.3703 22.072C90.1383 20.7493 91.1943 19.7253 92.5383 19C93.8823 18.2533 95.3969 17.88 97.0823 17.88C98.7676 17.88 100.272 18.2533 101.594 19C102.938 19.7253 103.984 20.7493 104.73 22.072C105.498 23.3733 105.882 24.856 105.882 26.52C105.882 28.184 105.498 29.6773 104.73 31C103.984 32.3013 102.938 33.3253 101.594 34.072C100.272 34.8187 98.7676 35.192 97.0823 35.192ZM97.0823 32.504C98.1703 32.504 99.1409 32.2587 99.9943 31.768C100.869 31.256 101.552 30.552 102.042 29.656C102.533 28.7387 102.778 27.6933 102.778 26.52C102.778 25.3467 102.533 24.312 102.042 23.416C101.552 22.4987 100.869 21.7947 99.9943 21.304C99.1409 20.8133 98.1703 20.568 97.0823 20.568C95.9943 20.568 95.0129 20.8133 94.1383 21.304C93.2849 21.7947 92.6023 22.4987 92.0903 23.416C91.5996 24.312 91.3543 25.3467 91.3543 26.52C91.3543 27.6933 91.5996 28.7387 92.0903 29.656C92.6023 30.552 93.2849 31.256 94.1383 31.768C95.0129 32.2587 95.9943 32.504 97.0823 32.504ZM117.395 35.192C115.709 35.192 114.195 34.8187 112.851 34.072C111.507 33.3253 110.451 32.3013 109.683 31C108.936 29.6773 108.563 28.184 108.563 26.52C108.563 24.856 108.936 23.3733 109.683 22.072C110.451 20.7493 111.507 19.7253 112.851 19C114.195 18.2533 115.709 17.88 117.395 17.88C119.08 17.88 120.584 18.2533 121.907 19C123.251 19.7253 124.296 20.7493 125.043 22.072C125.811 23.3733 126.195 24.856 126.195 26.52C126.195 28.184 125.811 29.6773 125.043 31C124.296 32.3013 123.251 33.3253 121.907 34.072C120.584 34.8187 119.08 35.192 117.395 35.192ZM117.395 32.504C118.483 32.504 119.453 32.2587 120.307 31.768C121.181 31.256 121.864 30.552 122.355 29.656C122.845 28.7387 123.091 27.6933 123.091 26.52C123.091 25.3467 122.845 24.312 122.355 23.416C121.864 22.4987 121.181 21.7947 120.307 21.304C119.453 20.8133 118.483 20.568 117.395 20.568C116.307 20.568 115.325 20.8133 114.451 21.304C113.597 21.7947 112.915 22.4987 112.403 23.416C111.912 24.312 111.667 25.3467 111.667 26.52C111.667 27.6933 111.912 28.7387 112.403 29.656C112.915 30.552 113.597 31.256 114.451 31.768C115.325 32.2587 116.307 32.504 117.395 32.504ZM137.707 35.192C136.022 35.192 134.507 34.8187 133.163 34.072C131.819 33.3253 130.763 32.3013 129.995 31C129.249 29.6773 128.875 28.184 128.875 26.52C128.875 24.856 129.249 23.3733 129.995 22.072C130.763 20.7493 131.819 19.7253 133.163 19C134.507 18.2533 136.022 17.88 137.707 17.88C139.393 17.88 140.897 18.2533 142.219 19C143.563 19.7253 144.609 20.7493 145.355 22.072C146.123 23.3733 146.507 24.856 146.507 26.52C146.507 28.184 146.123 29.6773 145.355 31C144.609 32.3013 143.563 33.3253 142.219 34.072C140.897 34.8187 139.393 35.192 137.707 35.192ZM137.707 32.504C138.795 32.504 139.766 32.2587 140.619 31.768C141.494 31.256 142.177 30.552 142.667 29.656C143.158 28.7387 143.403 27.6933 143.403 26.52C143.403 25.3467 143.158 24.312 142.667 23.416C142.177 22.4987 141.494 21.7947 140.619 21.304C139.766 20.8133 138.795 20.568 137.707 20.568C136.619 20.568 135.638 20.8133 134.763 21.304C133.91 21.7947 133.227 22.4987 132.715 23.416C132.225 24.312 131.979 25.3467 131.979 26.52C131.979 27.6933 132.225 28.7387 132.715 29.656C133.227 30.552 133.91 31.256 134.763 31.768C135.638 32.2587 136.619 32.504 137.707 32.504ZM158.02 35.192C156.334 35.192 154.82 34.8187 153.476 34.072C152.132 33.3253 151.076 32.3013 150.308 31C149.561 29.6773 149.188 28.184 149.188 26.52C149.188 24.856 149.561 23.3733 150.308 22.072C151.076 20.7493 152.132 19.7253 153.476 19C154.82 18.2533 156.334 17.88 158.02 17.88C159.705 17.88 161.209 18.2533 162.532 19C163.876 19.7253 164.921 20.7493 165.668 22.072C166.436 23.3733 166.82 24.856 166.82 26.52C166.82 28.184 166.436 29.6773 165.668 31C164.921 32.3013 163.876 33.3253 162.532 34.072C161.209 34.8187 159.705 35.192 158.02 35.192ZM158.02 32.504C159.108 32.504 160.078 32.2587 160.932 31.768C161.806 31.256 162.489 30.552 162.98 29.656C163.47 28.7387 163.716 27.6933 163.716 26.52C163.716 25.3467 163.47 24.312 162.98 23.416C162.489 22.4987 161.806 21.7947 160.932 21.304C160.078 20.8133 159.108 20.568 158.02 20.568C156.932 20.568 155.95 20.8133 155.076 21.304C154.222 21.7947 153.54 22.4987 153.028 23.416C152.537 24.312 152.292 25.3467 152.292 26.52C152.292 27.6933 152.537 28.7387 153.028 29.656C153.54 30.552 154.222 31.256 155.076 31.768C155.95 32.2587 156.932 32.504 158.02 32.504ZM178.332 35.192C176.647 35.192 175.132 34.8187 173.788 34.072C172.444 33.3253 171.388 32.3013 170.62 31C169.874 29.6773 169.5 28.184 169.5 26.52C169.5 24.856 169.874 23.3733 170.62 22.072C171.388 20.7493 172.444 19.7253 173.788 19C175.132 18.2533 176.647 17.88 178.332 17.88C180.018 17.88 181.522 18.2533 182.844 19C184.188 19.7253 185.234 20.7493 185.98 22.072C186.748 23.3733 187.132 24.856 187.132 26.52C187.132 28.184 186.748 29.6773 185.98 31C185.234 32.3013 184.188 33.3253 182.844 34.072C181.522 34.8187 180.018 35.192 178.332 35.192ZM178.332 32.504C179.42 32.504 180.391 32.2587 181.244 31.768C182.119 31.256 182.802 30.552 183.292 29.656C183.783 28.7387 184.028 27.6933 184.028 26.52C184.028 25.3467 183.783 24.312 183.292 23.416C182.802 22.4987 182.119 21.7947 181.244 21.304C180.391 20.8133 179.42 20.568 178.332 20.568C177.244 20.568 176.263 20.8133 175.388 21.304C174.535 21.7947 173.852 22.4987 173.34 23.416C172.85 24.312 172.604 25.3467 172.604 26.52C172.604 27.6933 172.85 28.7387 173.34 29.656C173.852 30.552 174.535 31.256 175.388 31.768C176.263 32.2587 177.244 32.504 178.332 32.504ZM196.533 35.192C194.89 35.192 193.621 34.744 192.725 33.848C191.829 32.9307 191.381 31.6507 191.381 30.008V11.256H194.453V29.752C194.453 30.6693 194.666 31.3733 195.093 31.864C195.541 32.3547 196.202 32.6 197.077 32.6C197.61 32.6 198.111 32.4933 198.581 32.28L198.741 34.808C198.037 35.064 197.301 35.192 196.533 35.192ZM217.35 11.256V35H214.406V32.312C213.723 33.2507 212.859 33.9653 211.814 34.456C210.768 34.9467 209.616 35.192 208.358 35.192C206.715 35.192 205.243 34.8293 203.942 34.104C202.64 33.3787 201.616 32.3653 200.87 31.064C200.144 29.7413 199.782 28.2267 199.782 26.52C199.782 24.8133 200.144 23.3093 200.87 22.008C201.616 20.7067 202.64 19.6933 203.942 18.968C205.243 18.2427 206.715 17.88 208.358 17.88C209.574 17.88 210.694 18.1147 211.718 18.584C212.742 19.032 213.595 19.704 214.278 20.6V11.256H217.35ZM208.614 32.504C209.68 32.504 210.651 32.2587 211.526 31.768C212.4 31.256 213.083 30.552 213.574 29.656C214.064 28.7387 214.31 27.6933 214.31 26.52C214.31 25.3467 214.064 24.312 213.574 23.416C213.083 22.4987 212.4 21.7947 211.526 21.304C210.651 20.8133 209.68 20.568 208.614 20.568C207.526 20.568 206.544 20.8133 205.67 21.304C204.816 21.7947 204.134 22.4987 203.622 23.416C203.131 24.312 202.886 25.3467 202.886 26.52C202.886 27.6933 203.131 28.7387 203.622 29.656C204.134 30.552 204.816 31.256 205.67 31.768C206.544 32.2587 207.526 32.504 208.614 32.504Z" fill="#93BDED"/>
<path d="M22.624 12.6H23.624V11.6H22.624V12.6ZM22.624 35V36H23.624V35H22.624ZM19.424 35H18.424V36H19.424V35ZM19.424 25.016H20.424V24.016H19.424V25.016ZM6.56 25.016V24.016H5.56V25.016H6.56ZM6.56 35V36H7.56V35H6.56ZM3.36 35H2.36V36H3.36V35ZM3.36 12.6V11.6H2.36V12.6H3.36ZM6.56 12.6H7.56V11.6H6.56V12.6ZM6.56 22.232H5.56V23.232H6.56V22.232ZM19.424 22.232V23.232H20.424V22.232H19.424ZM19.424 12.6V11.6H18.424V12.6H19.424ZM21.624 12.6V35H23.624V12.6H21.624ZM22.624 34H19.424V36H22.624V34ZM20.424 35V25.016H18.424V35H20.424ZM19.424 24.016H6.56V26.016H19.424V24.016ZM5.56 25.016V35H7.56V25.016H5.56ZM6.56 34H3.36V36H6.56V34ZM4.36 35V12.6H2.36V35H4.36ZM3.36 13.6H6.56V11.6H3.36V13.6ZM5.56 12.6V22.232H7.56V12.6H5.56ZM6.56 23.232H19.424V21.232H6.56V23.232ZM20.424 22.232V12.6H18.424V22.232H20.424ZM19.424 13.6H22.624V11.6H19.424V13.6ZM31.6008 34.072L32.0864 33.1978L32.0864 33.1978L31.6008 34.072ZM28.4328 31L27.5619 31.4916L27.5667 31.5L27.5715 31.5083L28.4328 31ZM28.4328 22.072L27.5679 21.5699L27.5654 21.5743L28.4328 22.072ZM31.6008 19L32.0757 19.8801L32.0864 19.8742L31.6008 19ZM40.6568 19L40.1652 19.8708L40.1734 19.8755L40.1818 19.88L40.6568 19ZM43.7928 22.072L42.9219 22.5636L42.9267 22.572L42.9315 22.5803L43.7928 22.072ZM43.7928 31L42.928 30.4979L42.9254 30.5023L43.7928 31ZM40.6568 34.072L40.1711 33.1978L40.1652 33.2012L40.6568 34.072ZM39.0568 31.768L39.5552 32.6349L39.5619 32.631L39.0568 31.768ZM41.1048 29.656L41.9819 30.1363L41.9865 30.1277L41.1048 29.656ZM41.1048 23.416L40.2229 23.8877L40.2277 23.8963L41.1048 23.416ZM39.0568 21.304L38.5583 22.171L38.5675 22.1761L39.0568 21.304ZM33.2008 21.304L32.7115 20.4318L32.7023 20.4371L33.2008 21.304ZM31.1528 23.416L30.2795 22.9286L30.2757 22.9357L31.1528 23.416ZM31.1528 29.656L30.271 30.1277L30.2776 30.14L30.2845 30.1521L31.1528 29.656ZM33.2008 31.768L32.6863 32.6255L32.6988 32.633L32.7115 32.6401L33.2008 31.768ZM36.1448 34.192C34.6126 34.192 33.2679 33.8542 32.0864 33.1978L31.1151 34.9462C32.6216 35.7831 34.3062 36.192 36.1448 36.192V34.192ZM32.0864 33.1978C30.895 32.536 29.9699 31.6371 29.294 30.4917L27.5715 31.5083C28.4316 32.9656 29.6185 34.1147 31.1151 34.9462L32.0864 33.1978ZM29.3036 30.5084C28.6495 29.3498 28.3128 28.0286 28.3128 26.52H26.3128C26.3128 28.3394 26.7226 30.0049 27.5619 31.4916L29.3036 30.5084ZM28.3128 26.52C28.3128 25.0111 28.6496 23.7035 29.3001 22.5697L27.5654 21.5743C26.7226 23.0432 26.3128 24.7009 26.3128 26.52H28.3128ZM29.2975 22.5741C29.9731 21.4107 30.8942 20.5176 32.0757 19.88L31.1258 18.12C29.6193 18.933 28.4284 20.0879 27.568 21.5699L29.2975 22.5741ZM32.0864 19.8742C33.2679 19.2178 34.6126 18.88 36.1448 18.88V16.88C34.3062 16.88 32.6216 17.2889 31.1151 18.1258L32.0864 19.8742ZM36.1448 18.88C37.6771 18.88 39.0085 19.2178 40.1652 19.8708L41.1483 18.1292C39.6597 17.2888 37.983 16.88 36.1448 16.88V18.88ZM40.1818 19.88C41.3608 20.5163 42.2685 21.4061 42.9219 22.5636L44.6636 21.5804C43.8237 20.0926 42.6407 18.9343 41.1317 18.12L40.1818 19.88ZM42.9315 22.5803C43.5997 23.7123 43.9448 25.0162 43.9448 26.52H45.9448C45.9448 24.6958 45.5218 23.0343 44.654 21.5637L42.9315 22.5803ZM43.9448 26.52C43.9448 28.0236 43.5997 29.341 42.928 30.4979L44.6575 31.5021C45.5218 30.0137 45.9448 28.3444 45.9448 26.52H43.9448ZM42.9254 30.5023C42.2716 31.6417 41.3601 32.5373 40.1711 33.1978L41.1424 34.9462C42.6414 34.1134 43.8205 32.961 44.6601 31.4977L42.9254 30.5023ZM40.1652 33.2012C39.0085 33.8542 37.6771 34.192 36.1448 34.192V36.192C37.983 36.192 39.6597 35.7832 41.1483 34.9428L40.1652 33.2012ZM36.1448 33.504C37.3888 33.504 38.5347 33.2217 39.5552 32.6349L38.5583 30.9011C37.8722 31.2956 37.0767 31.504 36.1448 31.504V33.504ZM39.5619 32.631C40.5943 32.0267 41.4049 31.1899 41.9818 30.1363L40.2277 29.1757C39.8233 29.9141 39.2686 30.4853 38.5516 30.905L39.5619 32.631ZM41.9865 30.1277C42.5643 29.0475 42.8408 27.8366 42.8408 26.52H40.8408C40.8408 27.5501 40.6266 28.4298 40.223 29.1843L41.9865 30.1277ZM42.8408 26.52C42.8408 25.204 42.5644 23.9996 41.9818 22.9357L40.2277 23.8963C40.6264 24.6244 40.8408 25.4894 40.8408 26.52H42.8408ZM41.9865 22.9443C41.4094 21.8654 40.5935 21.0195 39.546 20.4319L38.5675 22.1761C39.2694 22.5699 39.8187 23.1319 40.223 23.8877L41.9865 22.9443ZM39.5552 20.4371C38.5347 19.8503 37.3888 19.568 36.1448 19.568V21.568C37.0767 21.568 37.8722 21.7764 38.5583 22.1709L39.5552 20.4371ZM36.1448 19.568C34.9004 19.568 33.7481 19.8503 32.7115 20.4319L33.69 22.1761C34.4027 21.7763 35.2131 21.568 36.1448 21.568V19.568ZM32.7023 20.4371C31.6814 21.0241 30.8736 21.8642 30.2796 22.9286L32.0259 23.9034C32.4559 23.1331 33.0135 22.5652 33.6992 22.1709L32.7023 20.4371ZM30.2757 22.9357C29.6931 23.9996 29.4168 25.204 29.4168 26.52H31.4168C31.4168 25.4894 31.6311 24.6244 32.0298 23.8963L30.2757 22.9357ZM29.4168 26.52C29.4168 27.8366 29.6932 29.0475 30.271 30.1277L32.0345 29.1843C31.6309 28.4298 31.4168 27.5501 31.4168 26.52H29.4168ZM30.2845 30.1521C30.8782 31.1912 31.6804 32.022 32.6863 32.6255L33.7152 30.9105C33.0144 30.49 32.4513 29.9128 32.021 29.1599L30.2845 30.1521ZM32.7115 32.6401C33.7481 33.2217 34.9004 33.504 36.1448 33.504V31.504C35.2131 31.504 34.4027 31.2957 33.69 30.8959L32.7115 32.6401ZM51.9133 34.072L52.3989 33.1978L52.3989 33.1978L51.9133 34.072ZM48.7453 31L47.8744 31.4916L47.8792 31.5L47.884 31.5083L48.7453 31ZM48.7453 22.072L47.8804 21.5699L47.8779 21.5743L48.7453 22.072ZM51.9133 19L52.3882 19.8801L52.3989 19.8742L51.9133 19ZM60.9693 19L60.4777 19.8708L60.4859 19.8755L60.4943 19.88L60.9693 19ZM64.1053 22.072L63.2344 22.5636L63.2392 22.572L63.244 22.5803L64.1053 22.072ZM64.1053 31L63.2405 30.4979L63.2379 30.5023L64.1053 31ZM60.9693 34.072L60.4836 33.1978L60.4777 33.2012L60.9693 34.072ZM59.3693 31.768L59.8677 32.6349L59.8744 32.631L59.3693 31.768ZM61.4173 29.656L62.2944 30.1363L62.299 30.1277L61.4173 29.656ZM61.4173 23.416L60.5354 23.8877L60.5402 23.8963L61.4173 23.416ZM59.3693 21.304L58.8708 22.171L58.88 22.1761L59.3693 21.304ZM53.5133 21.304L53.024 20.4318L53.0148 20.4371L53.5133 21.304ZM51.4653 23.416L50.592 22.9286L50.5882 22.9357L51.4653 23.416ZM51.4653 29.656L50.5835 30.1277L50.5901 30.14L50.597 30.1521L51.4653 29.656ZM53.5133 31.768L52.9988 32.6255L53.0113 32.633L53.024 32.6401L53.5133 31.768ZM56.4573 34.192C54.9251 34.192 53.5804 33.8542 52.3989 33.1978L51.4276 34.9462C52.9341 35.7831 54.6187 36.192 56.4573 36.192V34.192ZM52.3989 33.1978C51.2075 32.536 50.2824 31.6371 49.6065 30.4917L47.884 31.5083C48.7441 32.9656 49.931 34.1147 51.4276 34.9462L52.3989 33.1978ZM49.6161 30.5084C48.962 29.3498 48.6253 28.0286 48.6253 26.52H46.6253C46.6253 28.3394 47.0351 30.0049 47.8744 31.4916L49.6161 30.5084ZM48.6253 26.52C48.6253 25.0111 48.9621 23.7035 49.6126 22.5697L47.8779 21.5743C47.0351 23.0432 46.6253 24.7009 46.6253 26.52H48.6253ZM49.61 22.5741C50.2856 21.4107 51.2067 20.5176 52.3882 19.88L51.4383 18.12C49.9318 18.933 48.7409 20.0879 47.8805 21.5699L49.61 22.5741ZM52.3989 19.8742C53.5804 19.2178 54.9251 18.88 56.4573 18.88V16.88C54.6187 16.88 52.9341 17.2889 51.4276 18.1258L52.3989 19.8742ZM56.4573 18.88C57.9896 18.88 59.321 19.2178 60.4777 19.8708L61.4608 18.1292C59.9722 17.2888 58.2955 16.88 56.4573 16.88V18.88ZM60.4943 19.88C61.6733 20.5163 62.581 21.4061 63.2344 22.5636L64.9761 21.5804C64.1362 20.0926 62.9532 18.9343 61.4442 18.12L60.4943 19.88ZM63.244 22.5803C63.9122 23.7123 64.2573 25.0162 64.2573 26.52H66.2573C66.2573 24.6958 65.8343 23.0343 64.9665 21.5637L63.244 22.5803ZM64.2573 26.52C64.2573 28.0236 63.9122 29.341 63.2405 30.4979L64.97 31.5021C65.8343 30.0137 66.2573 28.3444 66.2573 26.52H64.2573ZM63.2379 30.5023C62.5841 31.6417 61.6726 32.5373 60.4836 33.1978L61.4549 34.9462C62.9539 34.1134 64.133 32.961 64.9726 31.4977L63.2379 30.5023ZM60.4777 33.2012C59.321 33.8542 57.9896 34.192 56.4573 34.192V36.192C58.2955 36.192 59.9722 35.7832 61.4608 34.9428L60.4777 33.2012ZM56.4573 33.504C57.7013 33.504 58.8472 33.2217 59.8677 32.6349L58.8708 30.9011C58.1847 31.2956 57.3892 31.504 56.4573 31.504V33.504ZM59.8744 32.631C60.9068 32.0267 61.7174 31.1899 62.2943 30.1363L60.5402 29.1757C60.1358 29.9141 59.5811 30.4853 58.8641 30.905L59.8744 32.631ZM62.299 30.1277C62.8768 29.0475 63.1533 27.8366 63.1533 26.52H61.1533C61.1533 27.5501 60.9391 28.4298 60.5355 29.1843L62.299 30.1277ZM63.1533 26.52C63.1533 25.204 62.8769 23.9996 62.2943 22.9357L60.5402 23.8963C60.9389 24.6244 61.1533 25.4894 61.1533 26.52H63.1533ZM62.299 22.9443C61.7219 21.8654 60.906 21.0195 59.8585 20.4319L58.88 22.1761C59.5819 22.5699 60.1312 23.1319 60.5355 23.8877L62.299 22.9443ZM59.8677 20.4371C58.8472 19.8503 57.7013 19.568 56.4573 19.568V21.568C57.3892 21.568 58.1847 21.7764 58.8708 22.1709L59.8677 20.4371ZM56.4573 19.568C55.2129 19.568 54.0606 19.8503 53.024 20.4319L54.0025 22.1761C54.7152 21.7763 55.5256 21.568 56.4573 21.568V19.568ZM53.0148 20.4371C51.9939 21.0241 51.1861 21.8642 50.5921 22.9286L52.3384 23.9034C52.7684 23.1331 53.326 22.5652 54.0117 22.1709L53.0148 20.4371ZM50.5882 22.9357C50.0056 23.9996 49.7293 25.204 49.7293 26.52H51.7293C51.7293 25.4894 51.9436 24.6244 52.3423 23.8963L50.5882 22.9357ZM49.7293 26.52C49.7293 27.8366 50.0057 29.0475 50.5835 30.1277L52.347 29.1843C51.9434 28.4298 51.7293 27.5501 51.7293 26.52H49.7293ZM50.597 30.1521C51.1907 31.1912 51.9929 32.022 52.9988 32.6255L54.0277 30.9105C53.3269 30.49 52.7638 29.9128 52.3335 29.1599L50.597 30.1521ZM53.024 32.6401C54.0606 33.2217 55.2129 33.504 56.4573 33.504V31.504C55.5256 31.504 54.7152 31.2957 54.0025 30.8959L53.024 32.6401ZM72.2258 34.072L72.7114 33.1978L72.7114 33.1978L72.2258 34.072ZM69.0578 31L68.1869 31.4916L68.1917 31.5L68.1965 31.5083L69.0578 31ZM69.0578 22.072L68.1929 21.5699L68.1904 21.5743L69.0578 22.072ZM72.2258 19L72.7007 19.8801L72.7114 19.8742L72.2258 19ZM81.2818 19L80.7902 19.8708L80.7984 19.8755L80.8068 19.88L81.2818 19ZM84.4178 22.072L83.5469 22.5636L83.5517 22.572L83.5565 22.5803L84.4178 22.072ZM84.4178 31L83.553 30.4979L83.5504 30.5023L84.4178 31ZM81.2818 34.072L80.7961 33.1978L80.7902 33.2012L81.2818 34.072ZM79.6818 31.768L80.1802 32.6349L80.1869 32.631L79.6818 31.768ZM81.7298 29.656L82.6069 30.1363L82.6115 30.1277L81.7298 29.656ZM81.7298 23.416L80.8479 23.8877L80.8527 23.8963L81.7298 23.416ZM79.6818 21.304L79.1833 22.171L79.1925 22.1761L79.6818 21.304ZM73.8258 21.304L73.3365 20.4318L73.3273 20.4371L73.8258 21.304ZM71.7778 23.416L70.9045 22.9286L70.9007 22.9357L71.7778 23.416ZM71.7778 29.656L70.896 30.1277L70.9026 30.14L70.9095 30.1521L71.7778 29.656ZM73.8258 31.768L73.3113 32.6255L73.3238 32.633L73.3365 32.6401L73.8258 31.768ZM76.7698 34.192C75.2376 34.192 73.8929 33.8542 72.7114 33.1978L71.7401 34.9462C73.2466 35.7831 74.9312 36.192 76.7698 36.192V34.192ZM72.7114 33.1978C71.52 32.536 70.5949 31.6371 69.919 30.4917L68.1965 31.5083C69.0566 32.9656 70.2435 34.1147 71.7401 34.9462L72.7114 33.1978ZM69.9286 30.5084C69.2745 29.3498 68.9378 28.0286 68.9378 26.52H66.9378C66.9378 28.3394 67.3476 30.0049 68.1869 31.4916L69.9286 30.5084ZM68.9378 26.52C68.9378 25.0111 69.2746 23.7035 69.9251 22.5697L68.1904 21.5743C67.3476 23.0432 66.9378 24.7009 66.9378 26.52H68.9378ZM69.9225 22.5741C70.5981 21.4107 71.5192 20.5176 72.7007 19.88L71.7508 18.12C70.2443 18.933 69.0534 20.0879 68.193 21.5699L69.9225 22.5741ZM72.7114 19.8742C73.8929 19.2178 75.2376 18.88 76.7698 18.88V16.88C74.9312 16.88 73.2466 17.2889 71.7401 18.1258L72.7114 19.8742ZM76.7698 18.88C78.3021 18.88 79.6335 19.2178 80.7902 19.8708L81.7733 18.1292C80.2847 17.2888 78.608 16.88 76.7698 16.88V18.88ZM80.8068 19.88C81.9858 20.5163 82.8935 21.4061 83.5469 22.5636L85.2886 21.5804C84.4487 20.0926 83.2657 18.9343 81.7567 18.12L80.8068 19.88ZM83.5565 22.5803C84.2247 23.7123 84.5698 25.0162 84.5698 26.52H86.5698C86.5698 24.6958 86.1468 23.0343 85.279 21.5637L83.5565 22.5803ZM84.5698 26.52C84.5698 28.0236 84.2247 29.341 83.553 30.4979L85.2825 31.5021C86.1468 30.0137 86.5698 28.3444 86.5698 26.52H84.5698ZM83.5504 30.5023C82.8966 31.6417 81.9851 32.5373 80.7961 33.1978L81.7674 34.9462C83.2664 34.1134 84.4455 32.961 85.2851 31.4977L83.5504 30.5023ZM80.7902 33.2012C79.6335 33.8542 78.3021 34.192 76.7698 34.192V36.192C78.608 36.192 80.2847 35.7832 81.7733 34.9428L80.7902 33.2012ZM76.7698 33.504C78.0138 33.504 79.1597 33.2217 80.1802 32.6349L79.1833 30.9011C78.4972 31.2956 77.7017 31.504 76.7698 31.504V33.504ZM80.1869 32.631C81.2193 32.0267 82.0299 31.1899 82.6068 30.1363L80.8527 29.1757C80.4483 29.9141 79.8936 30.4853 79.1766 30.905L80.1869 32.631ZM82.6115 30.1277C83.1893 29.0475 83.4658 27.8366 83.4658 26.52H81.4658C81.4658 27.5501 81.2516 28.4298 80.848 29.1843L82.6115 30.1277ZM83.4658 26.52C83.4658 25.204 83.1894 23.9996 82.6068 22.9357L80.8527 23.8963C81.2514 24.6244 81.4658 25.4894 81.4658 26.52H83.4658ZM82.6115 22.9443C82.0344 21.8654 81.2185 21.0195 80.171 20.4319L79.1925 22.1761C79.8944 22.5699 80.4437 23.1319 80.848 23.8877L82.6115 22.9443ZM80.1802 20.4371C79.1597 19.8503 78.0138 19.568 76.7698 19.568V21.568C77.7017 21.568 78.4972 21.7764 79.1833 22.1709L80.1802 20.4371ZM76.7698 19.568C75.5254 19.568 74.3731 19.8503 73.3365 20.4319L74.315 22.1761C75.0277 21.7763 75.8381 21.568 76.7698 21.568V19.568ZM73.3273 20.4371C72.3064 21.0241 71.4986 21.8642 70.9046 22.9286L72.6509 23.9034C73.0809 23.1331 73.6385 22.5652 74.3242 22.1709L73.3273 20.4371ZM70.9007 22.9357C70.3181 23.9996 70.0418 25.204 70.0418 26.52H72.0418C72.0418 25.4894 72.2561 24.6244 72.6548 23.8963L70.9007 22.9357ZM70.0418 26.52C70.0418 27.8366 70.3182 29.0475 70.896 30.1277L72.6595 29.1843C72.2559 28.4298 72.0418 27.5501 72.0418 26.52H70.0418ZM70.9095 30.1521C71.5032 31.1912 72.3054 32.022 73.3113 32.6255L74.3402 30.9105C73.6394 30.49 73.0763 29.9128 72.646 29.1599L70.9095 30.1521ZM73.3365 32.6401C74.3731 33.2217 75.5254 33.504 76.7698 33.504V31.504C75.8381 31.504 75.0277 31.2957 74.315 30.8959L73.3365 32.6401ZM92.5383 34.072L93.0239 33.1978L93.0239 33.1978L92.5383 34.072ZM89.3703 31L88.4994 31.4916L88.5042 31.5L88.509 31.5083L89.3703 31ZM89.3703 22.072L88.5054 21.5699L88.5029 21.5743L89.3703 22.072ZM92.5383 19L93.0132 19.8801L93.0239 19.8742L92.5383 19ZM101.594 19L101.103 19.8708L101.111 19.8755L101.119 19.88L101.594 19ZM104.73 22.072L103.859 22.5636L103.864 22.572L103.869 22.5803L104.73 22.072ZM104.73 31L103.865 30.4979L103.863 30.5023L104.73 31ZM101.594 34.072L101.109 33.1978L101.103 33.2012L101.594 34.072ZM99.9943 31.768L100.493 32.6349L100.499 32.631L99.9943 31.768ZM102.042 29.656L102.919 30.1363L102.924 30.1277L102.042 29.656ZM102.042 23.416L101.16 23.8877L101.165 23.8963L102.042 23.416ZM99.9943 21.304L99.4958 22.171L99.505 22.1761L99.9943 21.304ZM94.1383 21.304L93.649 20.4318L93.6398 20.4371L94.1383 21.304ZM92.0903 23.416L91.217 22.9286L91.2132 22.9357L92.0903 23.416ZM92.0903 29.656L91.2085 30.1277L91.2151 30.14L91.222 30.1521L92.0903 29.656ZM94.1383 31.768L93.6238 32.6255L93.6363 32.633L93.649 32.6401L94.1383 31.768ZM97.0823 34.192C95.5501 34.192 94.2054 33.8542 93.0239 33.1978L92.0526 34.9462C93.5591 35.7831 95.2437 36.192 97.0823 36.192V34.192ZM93.0239 33.1978C91.8325 32.536 90.9074 31.6371 90.2315 30.4917L88.509 31.5083C89.3691 32.9656 90.556 34.1147 92.0526 34.9462L93.0239 33.1978ZM90.2411 30.5084C89.587 29.3498 89.2503 28.0286 89.2503 26.52H87.2503C87.2503 28.3394 87.6601 30.0049 88.4994 31.4916L90.2411 30.5084ZM89.2503 26.52C89.2503 25.0111 89.5871 23.7035 90.2376 22.5697L88.5029 21.5743C87.6601 23.0432 87.2503 24.7009 87.2503 26.52H89.2503ZM90.235 22.5741C90.9106 21.4107 91.8317 20.5176 93.0132 19.88L92.0633 18.12C90.5568 18.933 89.3659 20.0879 88.5055 21.5699L90.235 22.5741ZM93.0239 19.8742C94.2054 19.2178 95.5501 18.88 97.0823 18.88V16.88C95.2437 16.88 93.5591 17.2889 92.0526 18.1258L93.0239 19.8742ZM97.0823 18.88C98.6146 18.88 99.946 19.2178 101.103 19.8708L102.086 18.1292C100.597 17.2888 98.9205 16.88 97.0823 16.88V18.88ZM101.119 19.88C102.298 20.5163 103.206 21.4061 103.859 22.5636L105.601 21.5804C104.761 20.0926 103.578 18.9343 102.069 18.12L101.119 19.88ZM103.869 22.5803C104.537 23.7123 104.882 25.0162 104.882 26.52H106.882C106.882 24.6958 106.459 23.0343 105.591 21.5637L103.869 22.5803ZM104.882 26.52C104.882 28.0236 104.537 29.341 103.865 30.4979L105.595 31.5021C106.459 30.0137 106.882 28.3444 106.882 26.52H104.882ZM103.863 30.5023C103.209 31.6417 102.298 32.5373 101.109 33.1978L102.08 34.9462C103.579 34.1134 104.758 32.961 105.598 31.4977L103.863 30.5023ZM101.103 33.2012C99.946 33.8542 98.6146 34.192 97.0823 34.192V36.192C98.9205 36.192 100.597 35.7832 102.086 34.9428L101.103 33.2012ZM97.0823 33.504C98.3263 33.504 99.4722 33.2217 100.493 32.6349L99.4958 30.9011C98.8097 31.2956 98.0142 31.504 97.0823 31.504V33.504ZM100.499 32.631C101.532 32.0267 102.342 31.1899 102.919 30.1363L101.165 29.1757C100.761 29.9141 100.206 30.4853 99.4891 30.905L100.499 32.631ZM102.924 30.1277C103.502 29.0475 103.778 27.8366 103.778 26.52H101.778C101.778 27.5501 101.564 28.4298 101.16 29.1843L102.924 30.1277ZM103.778 26.52C103.778 25.204 103.502 23.9996 102.919 22.9357L101.165 23.8963C101.564 24.6244 101.778 25.4894 101.778 26.52H103.778ZM102.924 22.9443C102.347 21.8654 101.531 21.0195 100.484 20.4319L99.505 22.1761C100.207 22.5699 100.756 23.1319 101.16 23.8877L102.924 22.9443ZM100.493 20.4371C99.4722 19.8503 98.3263 19.568 97.0823 19.568V21.568C98.0142 21.568 98.8097 21.7764 99.4958 22.1709L100.493 20.4371ZM97.0823 19.568C95.8379 19.568 94.6856 19.8503 93.649 20.4319L94.6275 22.1761C95.3402 21.7763 96.1506 21.568 97.0823 21.568V19.568ZM93.6398 20.4371C92.6189 21.0241 91.8111 21.8642 91.2171 22.9286L92.9634 23.9034C93.3934 23.1331 93.951 22.5652 94.6367 22.1709L93.6398 20.4371ZM91.2132 22.9357C90.6306 23.9996 90.3543 25.204 90.3543 26.52H92.3543C92.3543 25.4894 92.5686 24.6244 92.9673 23.8963L91.2132 22.9357ZM90.3543 26.52C90.3543 27.8366 90.6307 29.0475 91.2085 30.1277L92.972 29.1843C92.5684 28.4298 92.3543 27.5501 92.3543 26.52H90.3543ZM91.222 30.1521C91.8157 31.1912 92.6179 32.022 93.6238 32.6255L94.6527 30.9105C93.9519 30.49 93.3888 29.9128 92.9585 29.1599L91.222 30.1521ZM93.649 32.6401C94.6856 33.2217 95.8379 33.504 97.0823 33.504V31.504C96.1506 31.504 95.3402 31.2957 94.6275 30.8959L93.649 32.6401ZM112.851 34.072L113.336 33.1978L113.336 33.1978L112.851 34.072ZM109.683 31L108.812 31.4916L108.817 31.5L108.822 31.5083L109.683 31ZM109.683 22.072L108.818 21.5699L108.815 21.5743L109.683 22.072ZM112.851 19L113.326 19.8801L113.336 19.8742L112.851 19ZM121.907 19L121.415 19.8708L121.423 19.8755L121.432 19.88L121.907 19ZM125.043 22.072L124.172 22.5636L124.177 22.572L124.182 22.5803L125.043 22.072ZM125.043 31L124.178 30.4979L124.175 30.5023L125.043 31ZM121.907 34.072L121.421 33.1978L121.415 33.2012L121.907 34.072ZM120.307 31.768L120.805 32.6349L120.812 32.631L120.307 31.768ZM122.355 29.656L123.232 30.1363L123.237 30.1277L122.355 29.656ZM122.355 23.416L121.473 23.8877L121.478 23.8963L122.355 23.416ZM120.307 21.304L119.808 22.171L119.817 22.1761L120.307 21.304ZM114.451 21.304L113.961 20.4318L113.952 20.4371L114.451 21.304ZM112.403 23.416L111.53 22.9286L111.526 22.9357L112.403 23.416ZM112.403 29.656L111.521 30.1277L111.528 30.14L111.535 30.1521L112.403 29.656ZM114.451 31.768L113.936 32.6255L113.949 32.633L113.961 32.6401L114.451 31.768ZM117.395 34.192C115.863 34.192 114.518 33.8542 113.336 33.1978L112.365 34.9462C113.872 35.7831 115.556 36.192 117.395 36.192V34.192ZM113.336 33.1978C112.145 32.536 111.22 31.6371 110.544 30.4917L108.822 31.5083C109.682 32.9656 110.868 34.1147 112.365 34.9462L113.336 33.1978ZM110.554 30.5084C109.9 29.3498 109.563 28.0286 109.563 26.52H107.563C107.563 28.3394 107.973 30.0049 108.812 31.4916L110.554 30.5084ZM109.563 26.52C109.563 25.0111 109.9 23.7035 110.55 22.5697L108.815 21.5743C107.973 23.0432 107.563 24.7009 107.563 26.52H109.563ZM110.548 22.5741C111.223 21.4107 112.144 20.5176 113.326 19.88L112.376 18.12C110.869 18.933 109.678 20.0879 108.818 21.5699L110.548 22.5741ZM113.336 19.8742C114.518 19.2178 115.863 18.88 117.395 18.88V16.88C115.556 16.88 113.872 17.2889 112.365 18.1258L113.336 19.8742ZM117.395 18.88C118.927 18.88 120.258 19.2178 121.415 19.8708L122.398 18.1292C120.91 17.2888 119.233 16.88 117.395 16.88V18.88ZM121.432 19.88C122.611 20.5163 123.519 21.4061 124.172 22.5636L125.914 21.5804C125.074 20.0926 123.891 18.9343 122.382 18.12L121.432 19.88ZM124.182 22.5803C124.85 23.7123 125.195 25.0162 125.195 26.52H127.195C127.195 24.6958 126.772 23.0343 125.904 21.5637L124.182 22.5803ZM125.195 26.52C125.195 28.0236 124.85 29.341 124.178 30.4979L125.908 31.5021C126.772 30.0137 127.195 28.3444 127.195 26.52H125.195ZM124.175 30.5023C123.522 31.6417 122.61 32.5373 121.421 33.1978L122.392 34.9462C123.891 34.1134 125.071 32.961 125.91 31.4977L124.175 30.5023ZM121.415 33.2012C120.258 33.8542 118.927 34.192 117.395 34.192V36.192C119.233 36.192 120.91 35.7832 122.398 34.9428L121.415 33.2012ZM117.395 33.504C118.639 33.504 119.785 33.2217 120.805 32.6349L119.808 30.9011C119.122 31.2956 118.327 31.504 117.395 31.504V33.504ZM120.812 32.631C121.844 32.0267 122.655 31.1899 123.232 30.1363L121.478 29.1757C121.073 29.9141 120.519 30.4853 119.802 30.905L120.812 32.631ZM123.237 30.1277C123.814 29.0475 124.091 27.8366 124.091 26.52H122.091C122.091 27.5501 121.877 28.4298 121.473 29.1843L123.237 30.1277ZM124.091 26.52C124.091 25.204 123.814 23.9996 123.232 22.9357L121.478 23.8963C121.876 24.6244 122.091 25.4894 122.091 26.52H124.091ZM123.237 22.9443C122.659 21.8654 121.843 21.0195 120.796 20.4319L119.817 22.1761C120.519 22.5699 121.069 23.1319 121.473 23.8877L123.237 22.9443ZM120.805 20.4371C119.785 19.8503 118.639 19.568 117.395 19.568V21.568C118.327 21.568 119.122 21.7764 119.808 22.1709L120.805 20.4371ZM117.395 19.568C116.15 19.568 114.998 19.8503 113.961 20.4319L114.94 22.1761C115.653 21.7763 116.463 21.568 117.395 21.568V19.568ZM113.952 20.4371C112.931 21.0241 112.124 21.8642 111.53 22.9286L113.276 23.9034C113.706 23.1331 114.263 22.5652 114.949 22.1709L113.952 20.4371ZM111.526 22.9357C110.943 23.9996 110.667 25.204 110.667 26.52H112.667C112.667 25.4894 112.881 24.6244 113.28 23.8963L111.526 22.9357ZM110.667 26.52C110.667 27.8366 110.943 29.0475 111.521 30.1277L113.285 29.1843C112.881 28.4298 112.667 27.5501 112.667 26.52H110.667ZM111.535 30.1521C112.128 31.1912 112.93 32.022 113.936 32.6255L114.965 30.9105C114.264 30.49 113.701 29.9128 113.271 29.1599L111.535 30.1521ZM113.961 32.6401C114.998 33.2217 116.15 33.504 117.395 33.504V31.504C116.463 31.504 115.653 31.2957 114.94 30.8959L113.961 32.6401ZM133.163 34.072L133.649 33.1978L133.649 33.1978L133.163 34.072ZM129.995 31L129.124 31.4916L129.129 31.5L129.134 31.5083L129.995 31ZM129.995 22.072L129.13 21.5699L129.128 21.5743L129.995 22.072ZM133.163 19L133.638 19.8801L133.649 19.8742L133.163 19ZM142.219 19L141.728 19.8708L141.736 19.8755L141.744 19.88L142.219 19ZM145.355 22.072L144.484 22.5636L144.489 22.572L144.494 22.5803L145.355 22.072ZM145.355 31L144.49 30.4979L144.488 30.5023L145.355 31ZM142.219 34.072L141.734 33.1978L141.728 33.2012L142.219 34.072ZM140.619 31.768L141.118 32.6349L141.124 32.631L140.619 31.768ZM142.667 29.656L143.544 30.1363L143.549 30.1277L142.667 29.656ZM142.667 23.416L141.785 23.8877L141.79 23.8963L142.667 23.416ZM140.619 21.304L140.121 22.171L140.13 22.1761L140.619 21.304ZM134.763 21.304L134.274 20.4318L134.265 20.4371L134.763 21.304ZM132.715 23.416L131.842 22.9286L131.838 22.9357L132.715 23.416ZM132.715 29.656L131.833 30.1277L131.84 30.14L131.847 30.1521L132.715 29.656ZM134.763 31.768L134.249 32.6255L134.261 32.633L134.274 32.6401L134.763 31.768ZM137.707 34.192C136.175 34.192 134.83 33.8542 133.649 33.1978L132.678 34.9462C134.184 35.7831 135.869 36.192 137.707 36.192V34.192ZM133.649 33.1978C132.458 32.536 131.532 31.6371 130.856 30.4917L129.134 31.5083C129.994 32.9656 131.181 34.1147 132.678 34.9462L133.649 33.1978ZM130.866 30.5084C130.212 29.3498 129.875 28.0286 129.875 26.52H127.875C127.875 28.3394 128.285 30.0049 129.124 31.4916L130.866 30.5084ZM129.875 26.52C129.875 25.0111 130.212 23.7035 130.863 22.5697L129.128 21.5743C128.285 23.0432 127.875 24.7009 127.875 26.52H129.875ZM130.86 22.5741C131.536 21.4107 132.457 20.5176 133.638 19.88L132.688 18.12C131.182 18.933 129.991 20.0879 129.13 21.5699L130.86 22.5741ZM133.649 19.8742C134.83 19.2178 136.175 18.88 137.707 18.88V16.88C135.869 16.88 134.184 17.2889 132.678 18.1258L133.649 19.8742ZM137.707 18.88C139.24 18.88 140.571 19.2178 141.728 19.8708L142.711 18.1292C141.222 17.2888 139.546 16.88 137.707 16.88V18.88ZM141.744 19.88C142.923 20.5163 143.831 21.4061 144.484 22.5636L146.226 21.5804C145.386 20.0926 144.203 18.9343 142.694 18.12L141.744 19.88ZM144.494 22.5803C145.162 23.7123 145.507 25.0162 145.507 26.52H147.507C147.507 24.6958 147.084 23.0343 146.216 21.5637L144.494 22.5803ZM145.507 26.52C145.507 28.0236 145.162 29.341 144.49 30.4979L146.22 31.5021C147.084 30.0137 147.507 28.3444 147.507 26.52H145.507ZM144.488 30.5023C143.834 31.6417 142.923 32.5373 141.734 33.1978L142.705 34.9462C144.204 34.1134 145.383 32.961 146.223 31.4977L144.488 30.5023ZM141.728 33.2012C140.571 33.8542 139.24 34.192 137.707 34.192V36.192C139.546 36.192 141.222 35.7832 142.711 34.9428L141.728 33.2012ZM137.707 33.504C138.951 33.504 140.097 33.2217 141.118 32.6349L140.121 30.9011C139.435 31.2956 138.639 31.504 137.707 31.504V33.504ZM141.124 32.631C142.157 32.0267 142.967 31.1899 143.544 30.1363L141.79 29.1757C141.386 29.9141 140.831 30.4853 140.114 30.905L141.124 32.631ZM143.549 30.1277C144.127 29.0475 144.403 27.8366 144.403 26.52H142.403C142.403 27.5501 142.189 28.4298 141.785 29.1843L143.549 30.1277ZM144.403 26.52C144.403 25.204 144.127 23.9996 143.544 22.9357L141.79 23.8963C142.189 24.6244 142.403 25.4894 142.403 26.52H144.403ZM143.549 22.9443C142.972 21.8654 142.156 21.0195 141.109 20.4319L140.13 22.1761C140.832 22.5699 141.381 23.1319 141.785 23.8877L143.549 22.9443ZM141.118 20.4371C140.097 19.8503 138.951 19.568 137.707 19.568V21.568C138.639 21.568 139.435 21.7764 140.121 22.1709L141.118 20.4371ZM137.707 19.568C136.463 19.568 135.311 19.8503 134.274 20.4319L135.253 22.1761C135.965 21.7763 136.776 21.568 137.707 21.568V19.568ZM134.265 20.4371C133.244 21.0241 132.436 21.8642 131.842 22.9286L133.588 23.9034C134.018 23.1331 134.576 22.5652 135.262 22.1709L134.265 20.4371ZM131.838 22.9357C131.256 23.9996 130.979 25.204 130.979 26.52H132.979C132.979 25.4894 133.194 24.6244 133.592 23.8963L131.838 22.9357ZM130.979 26.52C130.979 27.8366 131.256 29.0475 131.833 30.1277L133.597 29.1843C133.193 28.4298 132.979 27.5501 132.979 26.52H130.979ZM131.847 30.1521C132.441 31.1912 133.243 32.022 134.249 32.6255L135.278 30.9105C134.577 30.49 134.014 29.9128 133.583 29.1599L131.847 30.1521ZM134.274 32.6401C135.311 33.2217 136.463 33.504 137.707 33.504V31.504C136.776 31.504 135.965 31.2957 135.253 30.8959L134.274 32.6401ZM153.476 34.072L153.961 33.1978L153.961 33.1978L153.476 34.072ZM150.308 31L149.437 31.4916L149.442 31.5L149.447 31.5083L150.308 31ZM150.308 22.072L149.443 21.5699L149.44 21.5743L150.308 22.072ZM153.476 19L153.951 19.8801L153.961 19.8742L153.476 19ZM162.532 19L162.04 19.8708L162.048 19.8755L162.057 19.88L162.532 19ZM165.668 22.072L164.797 22.5636L164.802 22.572L164.807 22.5803L165.668 22.072ZM165.668 31L164.803 30.4979L164.8 30.5023L165.668 31ZM162.532 34.072L162.046 33.1978L162.04 33.2012L162.532 34.072ZM160.932 31.768L161.43 32.6349L161.437 32.631L160.932 31.768ZM162.98 29.656L163.857 30.1363L163.862 30.1277L162.98 29.656ZM162.98 23.416L162.098 23.8877L162.103 23.8963L162.98 23.416ZM160.932 21.304L160.433 22.171L160.442 22.1761L160.932 21.304ZM155.076 21.304L154.586 20.4318L154.577 20.4371L155.076 21.304ZM153.028 23.416L152.155 22.9286L152.151 22.9357L153.028 23.416ZM153.028 29.656L152.146 30.1277L152.153 30.14L152.16 30.1521L153.028 29.656ZM155.076 31.768L154.561 32.6255L154.574 32.633L154.586 32.6401L155.076 31.768ZM158.02 34.192C156.488 34.192 155.143 33.8542 153.961 33.1978L152.99 34.9462C154.497 35.7831 156.181 36.192 158.02 36.192V34.192ZM153.961 33.1978C152.77 32.536 151.845 31.6371 151.169 30.4917L149.447 31.5083C150.307 32.9656 151.493 34.1147 152.99 34.9462L153.961 33.1978ZM151.179 30.5084C150.525 29.3498 150.188 28.0286 150.188 26.52H148.188C148.188 28.3394 148.598 30.0049 149.437 31.4916L151.179 30.5084ZM150.188 26.52C150.188 25.0111 150.525 23.7035 151.175 22.5697L149.44 21.5743C148.598 23.0432 148.188 24.7009 148.188 26.52H150.188ZM151.173 22.5741C151.848 21.4107 152.769 20.5176 153.951 19.88L153.001 18.12C151.494 18.933 150.303 20.0879 149.443 21.5699L151.173 22.5741ZM153.961 19.8742C155.143 19.2178 156.488 18.88 158.02 18.88V16.88C156.181 16.88 154.497 17.2889 152.99 18.1258L153.961 19.8742ZM158.02 18.88C159.552 18.88 160.883 19.2178 162.04 19.8708L163.023 18.1292C161.535 17.2888 159.858 16.88 158.02 16.88V18.88ZM162.057 19.88C163.236 20.5163 164.144 21.4061 164.797 22.5636L166.539 21.5804C165.699 20.0926 164.516 18.9343 163.007 18.12L162.057 19.88ZM164.807 22.5803C165.475 23.7123 165.82 25.0162 165.82 26.52H167.82C167.82 24.6958 167.397 23.0343 166.529 21.5637L164.807 22.5803ZM165.82 26.52C165.82 28.0236 165.475 29.341 164.803 30.4979L166.533 31.5021C167.397 30.0137 167.82 28.3444 167.82 26.52H165.82ZM164.8 30.5023C164.147 31.6417 163.235 32.5373 162.046 33.1978L163.017 34.9462C164.516 34.1134 165.696 32.961 166.535 31.4977L164.8 30.5023ZM162.04 33.2012C160.883 33.8542 159.552 34.192 158.02 34.192V36.192C159.858 36.192 161.535 35.7832 163.023 34.9428L162.04 33.2012ZM158.02 33.504C159.264 33.504 160.41 33.2217 161.43 32.6349L160.433 30.9011C159.747 31.2956 158.952 31.504 158.02 31.504V33.504ZM161.437 32.631C162.469 32.0267 163.28 31.1899 163.857 30.1363L162.103 29.1757C161.698 29.9141 161.144 30.4853 160.427 30.905L161.437 32.631ZM163.862 30.1277C164.439 29.0475 164.716 27.8366 164.716 26.52H162.716C162.716 27.5501 162.502 28.4298 162.098 29.1843L163.862 30.1277ZM164.716 26.52C164.716 25.204 164.439 23.9996 163.857 22.9357L162.103 23.8963C162.501 24.6244 162.716 25.4894 162.716 26.52H164.716ZM163.862 22.9443C163.284 21.8654 162.468 21.0195 161.421 20.4319L160.442 22.1761C161.144 22.5699 161.694 23.1319 162.098 23.8877L163.862 22.9443ZM161.43 20.4371C160.41 19.8503 159.264 19.568 158.02 19.568V21.568C158.952 21.568 159.747 21.7764 160.433 22.1709L161.43 20.4371ZM158.02 19.568C156.775 19.568 155.623 19.8503 154.586 20.4319L155.565 22.1761C156.278 21.7763 157.088 21.568 158.02 21.568V19.568ZM154.577 20.4371C153.556 21.0241 152.749 21.8642 152.155 22.9286L153.901 23.9034C154.331 23.1331 154.888 22.5652 155.574 22.1709L154.577 20.4371ZM152.151 22.9357C151.568 23.9996 151.292 25.204 151.292 26.52H153.292C153.292 25.4894 153.506 24.6244 153.905 23.8963L152.151 22.9357ZM151.292 26.52C151.292 27.8366 151.568 29.0475 152.146 30.1277L153.91 29.1843C153.506 28.4298 153.292 27.5501 153.292 26.52H151.292ZM152.16 30.1521C152.753 31.1912 153.555 32.022 154.561 32.6255L155.59 30.9105C154.889 30.49 154.326 29.9128 153.896 29.1599L152.16 30.1521ZM154.586 32.6401C155.623 33.2217 156.775 33.504 158.02 33.504V31.504C157.088 31.504 156.278 31.2957 155.565 30.8959L154.586 32.6401ZM173.788 34.072L174.274 33.1978L174.274 33.1978L173.788 34.072ZM170.62 31L169.749 31.4916L169.754 31.5L169.759 31.5083L170.62 31ZM170.62 22.072L169.755 21.5699L169.753 21.5743L170.62 22.072ZM173.788 19L174.263 19.8801L174.274 19.8742L173.788 19ZM182.844 19L182.353 19.8708L182.361 19.8755L182.369 19.88L182.844 19ZM185.98 22.072L185.109 22.5636L185.114 22.572L185.119 22.5803L185.98 22.072ZM185.98 31L185.115 30.4979L185.113 30.5023L185.98 31ZM182.844 34.072L182.359 33.1978L182.353 33.2012L182.844 34.072ZM181.244 31.768L181.743 32.6349L181.749 32.631L181.244 31.768ZM183.292 29.656L184.169 30.1363L184.174 30.1277L183.292 29.656ZM183.292 23.416L182.41 23.8877L182.415 23.8963L183.292 23.416ZM181.244 21.304L180.746 22.171L180.755 22.1761L181.244 21.304ZM175.388 21.304L174.899 20.4318L174.89 20.4371L175.388 21.304ZM173.34 23.416L172.467 22.9286L172.463 22.9357L173.34 23.416ZM173.34 29.656L172.458 30.1277L172.465 30.14L172.472 30.1521L173.34 29.656ZM175.388 31.768L174.874 32.6255L174.886 32.633L174.899 32.6401L175.388 31.768ZM178.332 34.192C176.8 34.192 175.455 33.8542 174.274 33.1978L173.303 34.9462C174.809 35.7831 176.494 36.192 178.332 36.192V34.192ZM174.274 33.1978C173.083 32.536 172.157 31.6371 171.481 30.4917L169.759 31.5083C170.619 32.9656 171.806 34.1147 173.303 34.9462L174.274 33.1978ZM171.491 30.5084C170.837 29.3498 170.5 28.0286 170.5 26.52H168.5C168.5 28.3394 168.91 30.0049 169.749 31.4916L171.491 30.5084ZM170.5 26.52C170.5 25.0111 170.837 23.7035 171.488 22.5697L169.753 21.5743C168.91 23.0432 168.5 24.7009 168.5 26.52H170.5ZM171.485 22.5741C172.161 21.4107 173.082 20.5176 174.263 19.88L173.313 18.12C171.807 18.933 170.616 20.0879 169.755 21.5699L171.485 22.5741ZM174.274 19.8742C175.455 19.2178 176.8 18.88 178.332 18.88V16.88C176.494 16.88 174.809 17.2889 173.303 18.1258L174.274 19.8742ZM178.332 18.88C179.865 18.88 181.196 19.2178 182.353 19.8708L183.336 18.1292C181.847 17.2888 180.171 16.88 178.332 16.88V18.88ZM182.369 19.88C183.548 20.5163 184.456 21.4061 185.109 22.5636L186.851 21.5804C186.011 20.0926 184.828 18.9343 183.319 18.12L182.369 19.88ZM185.119 22.5803C185.787 23.7123 186.132 25.0162 186.132 26.52H188.132C188.132 24.6958 187.709 23.0343 186.841 21.5637L185.119 22.5803ZM186.132 26.52C186.132 28.0236 185.787 29.341 185.115 30.4979L186.845 31.5021C187.709 30.0137 188.132 28.3444 188.132 26.52H186.132ZM185.113 30.5023C184.459 31.6417 183.548 32.5373 182.359 33.1978L183.33 34.9462C184.829 34.1134 186.008 32.961 186.848 31.4977L185.113 30.5023ZM182.353 33.2012C181.196 33.8542 179.865 34.192 178.332 34.192V36.192C180.171 36.192 181.847 35.7832 183.336 34.9428L182.353 33.2012ZM178.332 33.504C179.576 33.504 180.722 33.2217 181.743 32.6349L180.746 30.9011C180.06 31.2956 179.264 31.504 178.332 31.504V33.504ZM181.749 32.631C182.782 32.0267 183.592 31.1899 184.169 30.1363L182.415 29.1757C182.011 29.9141 181.456 30.4853 180.739 30.905L181.749 32.631ZM184.174 30.1277C184.752 29.0475 185.028 27.8366 185.028 26.52H183.028C183.028 27.5501 182.814 28.4298 182.41 29.1843L184.174 30.1277ZM185.028 26.52C185.028 25.204 184.752 23.9996 184.169 22.9357L182.415 23.8963C182.814 24.6244 183.028 25.4894 183.028 26.52H185.028ZM184.174 22.9443C183.597 21.8654 182.781 21.0195 181.734 20.4319L180.755 22.1761C181.457 22.5699 182.006 23.1319 182.41 23.8877L184.174 22.9443ZM181.743 20.4371C180.722 19.8503 179.576 19.568 178.332 19.568V21.568C179.264 21.568 180.06 21.7764 180.746 22.1709L181.743 20.4371ZM178.332 19.568C177.088 19.568 175.936 19.8503 174.899 20.4319L175.878 22.1761C176.59 21.7763 177.401 21.568 178.332 21.568V19.568ZM174.89 20.4371C173.869 21.0241 173.061 21.8642 172.467 22.9286L174.213 23.9034C174.643 23.1331 175.201 22.5652 175.887 22.1709L174.89 20.4371ZM172.463 22.9357C171.881 23.9996 171.604 25.204 171.604 26.52H173.604C173.604 25.4894 173.819 24.6244 174.217 23.8963L172.463 22.9357ZM171.604 26.52C171.604 27.8366 171.881 29.0475 172.458 30.1277L174.222 29.1843C173.818 28.4298 173.604 27.5501 173.604 26.52H171.604ZM172.472 30.1521C173.066 31.1912 173.868 32.022 174.874 32.6255L175.903 30.9105C175.202 30.49 174.639 29.9128 174.208 29.1599L172.472 30.1521ZM174.899 32.6401C175.936 33.2217 177.088 33.504 178.332 33.504V31.504C177.401 31.504 176.59 31.2957 175.878 30.8959L174.899 32.6401ZM192.725 33.848L192.009 34.5468L192.018 34.5551L192.725 33.848ZM191.381 11.256V10.256H190.381V11.256H191.381ZM194.453 11.256H195.453V10.256H194.453V11.256ZM195.093 31.864L194.338 32.5202L194.346 32.5293L194.354 32.5383L195.093 31.864ZM198.581 32.28L199.579 32.2168L199.487 30.7695L198.167 31.3696L198.581 32.28ZM198.741 34.808L199.082 35.7478L199.786 35.492L199.739 34.7448L198.741 34.808ZM196.533 34.192C195.073 34.192 194.089 33.7984 193.432 33.1409L192.018 34.5551C193.152 35.6896 194.707 36.192 196.533 36.192V34.192ZM193.44 33.1493C192.774 32.4672 192.381 31.4661 192.381 30.008H190.381C190.381 31.8352 190.884 33.3941 192.009 34.5467L193.44 33.1493ZM192.381 30.008V11.256H190.381V30.008H192.381ZM191.381 12.256H194.453V10.256H191.381V12.256ZM193.453 11.256V29.752H195.453V11.256H193.453ZM193.453 29.752C193.453 30.8123 193.699 31.785 194.338 32.5202L195.847 31.2078C195.633 30.9616 195.453 30.5264 195.453 29.752H193.453ZM194.354 32.5383C195.047 33.2968 196.015 33.6 197.077 33.6V31.6C196.389 31.6 196.035 31.4126 195.831 31.1897L194.354 32.5383ZM197.077 33.6C197.748 33.6 198.391 33.4648 198.995 33.1904L198.167 31.3696C197.832 31.5218 197.472 31.6 197.077 31.6V33.6ZM197.583 32.3432L197.743 34.8712L199.739 34.7448L199.579 32.2168L197.583 32.3432ZM198.399 33.8682C197.807 34.0834 197.187 34.192 196.533 34.192V36.192C197.414 36.192 198.266 36.0446 199.082 35.7478L198.399 33.8682ZM217.35 11.256H218.35V10.256H217.35V11.256ZM217.35 35V36H218.35V35H217.35ZM214.406 35H213.406V36H214.406V35ZM214.406 32.312H215.406V29.2368L213.597 31.7238L214.406 32.312ZM211.814 34.456L212.238 35.3612L211.814 34.456ZM203.942 34.104L203.455 34.9775L203.455 34.9775L203.942 34.104ZM200.87 31.064L199.993 31.5448L199.997 31.5533L200.002 31.5617L200.87 31.064ZM200.87 22.008L200.002 21.5103L199.996 21.5211L200.87 22.008ZM203.942 18.968L203.455 18.0945L203.455 18.0945L203.942 18.968ZM211.718 18.584L211.301 19.4931L211.309 19.4967L211.317 19.5002L211.718 18.584ZM214.278 20.6L213.482 21.206L215.278 23.5625V20.6H214.278ZM214.278 11.256V10.256H213.278V11.256H214.278ZM211.526 31.768L212.015 32.6401L212.023 32.6357L212.031 32.631L211.526 31.768ZM213.574 29.656L214.451 30.1363L214.455 30.1277L213.574 29.656ZM213.574 23.416L212.692 23.8877L212.696 23.8963L213.574 23.416ZM211.526 21.304L211.036 22.1761L211.036 22.1761L211.526 21.304ZM205.67 21.304L205.18 20.4318L205.171 20.4371L205.67 21.304ZM203.622 23.416L202.748 22.9286L202.744 22.9357L203.622 23.416ZM203.622 29.656L202.74 30.1277L202.746 30.14L202.753 30.1521L203.622 29.656ZM205.67 31.768L205.155 32.6255L205.168 32.633L205.18 32.6401L205.67 31.768ZM216.35 11.256V35H218.35V11.256H216.35ZM217.35 34H214.406V36H217.35V34ZM215.406 35V32.312H213.406V35H215.406ZM213.597 31.7238C213.013 32.5269 212.28 33.1321 211.389 33.5508L212.238 35.3612C213.437 34.7985 214.433 33.9745 215.214 32.9002L213.597 31.7238ZM211.389 33.5508C210.488 33.9736 209.483 34.192 208.358 34.192V36.192C209.75 36.192 211.048 35.9198 212.238 35.3612L211.389 33.5508ZM208.358 34.192C206.867 34.192 205.566 33.8646 204.428 33.2305L203.455 34.9775C204.92 35.7941 206.562 36.192 208.358 36.192V34.192ZM204.428 33.2305C203.287 32.5942 202.394 31.7113 201.737 30.5663L200.002 31.5617C200.838 33.0193 201.994 34.1631 203.455 34.9775L204.428 33.2305ZM201.746 30.5832C201.112 29.4263 200.782 28.081 200.782 26.52H198.782C198.782 28.3723 199.176 30.0563 199.993 31.5448L201.746 30.5832ZM200.782 26.52C200.782 24.9586 201.112 23.6268 201.743 22.4949L199.996 21.5211C199.176 22.9918 198.782 24.668 198.782 26.52H200.782ZM201.737 22.5057C202.394 21.3607 203.287 20.4778 204.428 19.8415L203.455 18.0945C201.994 18.9089 200.838 20.0527 200.002 21.5103L201.737 22.5057ZM204.428 19.8415C205.566 19.2074 206.867 18.88 208.358 18.88V16.88C206.562 16.88 204.92 17.2779 203.455 18.0945L204.428 19.8415ZM208.358 18.88C209.441 18.88 210.418 19.0883 211.301 19.4931L212.134 17.6749C210.969 17.141 209.706 16.88 208.358 16.88V18.88ZM211.317 19.5002C212.184 19.8795 212.902 20.4442 213.482 21.206L215.073 19.994C214.288 18.9638 213.299 18.1845 212.118 17.6678L211.317 19.5002ZM215.278 20.6V11.256H213.278V20.6H215.278ZM214.278 12.256H217.35V10.256H214.278V12.256ZM208.614 33.504C209.84 33.504 210.981 33.22 212.015 32.6401L211.036 30.8959C210.321 31.2973 209.52 31.504 208.614 31.504V33.504ZM212.031 32.631C213.063 32.0267 213.874 31.1899 214.451 30.1363L212.696 29.1757C212.292 29.9141 211.737 30.4853 211.02 30.905L212.031 32.631ZM214.455 30.1277C215.033 29.0475 215.31 27.8366 215.31 26.52H213.31C213.31 27.5501 213.095 28.4298 212.692 29.1843L214.455 30.1277ZM215.31 26.52C215.31 25.204 215.033 23.9996 214.451 22.9357L212.696 23.8963C213.095 24.6244 213.31 25.4894 213.31 26.52H215.31ZM214.455 22.9443C213.878 21.8654 213.062 21.0195 212.015 20.4319L211.036 22.1761C211.738 22.5699 212.287 23.1319 212.692 23.8877L214.455 22.9443ZM212.015 20.4319C210.981 19.852 209.84 19.568 208.614 19.568V21.568C209.52 21.568 210.321 21.7747 211.036 22.1761L212.015 20.4319ZM208.614 19.568C207.369 19.568 206.217 19.8503 205.18 20.4319L206.159 22.1761C206.871 21.7763 207.682 21.568 208.614 21.568V19.568ZM205.171 20.4371C204.15 21.0241 203.342 21.8642 202.748 22.9286L204.495 23.9034C204.925 23.1331 205.482 22.5652 206.168 22.1709L205.171 20.4371ZM202.744 22.9357C202.162 23.9996 201.886 25.204 201.886 26.52H203.886C203.886 25.4894 204.1 24.6244 204.499 23.8963L202.744 22.9357ZM201.886 26.52C201.886 27.8366 202.162 29.0475 202.74 30.1277L204.503 29.1843C204.1 28.4298 203.886 27.5501 203.886 26.52H201.886ZM202.753 30.1521C203.347 31.1912 204.149 32.022 205.155 32.6255L206.184 30.9105C205.483 30.49 204.92 29.9128 204.49 29.1599L202.753 30.1521ZM205.18 32.6401C206.217 33.2217 207.369 33.504 208.614 33.504V31.504C207.682 31.504 206.871 31.2957 206.159 30.8959L205.18 32.6401Z" fill="black" mask="url(#path-2-outside-1_18_24)"/>
</svg>
