<svg width="856" height="911" viewBox="0 0 856 911" fill="none" xmlns="http://www.w3.org/2000/svg">
<rect x="426.015" y="-3.05176e-05" width="3.09467" height="745.394" transform="rotate(34.857 426.015 -3.05176e-05)" fill="#5F85B1" fill-opacity="0.41"/>
<rect x="642.713" y="150.929" width="3.09467" height="745.394" transform="rotate(34.857 642.713 150.929)" fill="#5F85B1" fill-opacity="0.41"/>
<rect x="534.364" y="75.4644" width="3.09467" height="745.394" transform="rotate(34.857 534.364 75.4644)" fill="#5F85B1" fill-opacity="0.41"/>
<rect x="751.062" y="226.394" width="3.09467" height="745.394" transform="rotate(34.857 751.062 226.394)" fill="#5F85B1" fill-opacity="0.41"/>
<rect x="480.19" y="37.7324" width="3.09467" height="745.394" transform="rotate(34.857 480.19 37.7324)" fill="#5F85B1" fill-opacity="0.41"/>
<rect x="696.888" y="188.661" width="3.09467" height="745.394" transform="rotate(34.857 696.888 188.661)" fill="#5F85B1" fill-opacity="0.41"/>
<rect x="588.539" y="113.197" width="3.09467" height="745.394" transform="rotate(34.857 588.539 113.197)" fill="#5F85B1" fill-opacity="0.41"/>
<rect x="805.237" y="264.126" width="3.09467" height="745.394" transform="rotate(34.857 805.237 264.126)" fill="#5F85B1" fill-opacity="0.41"/>
<rect x="453.103" y="18.8661" width="3.09467" height="745.394" transform="rotate(34.857 453.103 18.8661)" fill="#5F85B1" fill-opacity="0.41"/>
<rect x="669.801" y="169.795" width="3.09467" height="745.394" transform="rotate(34.857 669.801 169.795)" fill="#5F85B1" fill-opacity="0.41"/>
<rect x="561.451" y="94.3307" width="3.09467" height="745.394" transform="rotate(34.857 561.451 94.3307)" fill="#5F85B1" fill-opacity="0.41"/>
<rect x="778.15" y="245.26" width="3.09467" height="745.394" transform="rotate(34.857 778.15 245.26)" fill="#5F85B1" fill-opacity="0.41"/>
<rect x="507.277" y="56.5984" width="3.09467" height="745.394" transform="rotate(34.857 507.277 56.5984)" fill="#5F85B1" fill-opacity="0.41"/>
<rect x="723.975" y="207.528" width="3.09467" height="745.394" transform="rotate(34.857 723.975 207.528)" fill="#5F85B1" fill-opacity="0.41"/>
<rect x="615.626" y="132.063" width="3.09467" height="745.394" transform="rotate(34.857 615.626 132.063)" fill="#5F85B1" fill-opacity="0.41"/>
<rect x="832.324" y="282.992" width="3.09467" height="745.394" transform="rotate(34.857 832.324 282.992)" fill="#5F85B1" fill-opacity="0.41"/>
<rect x="439.559" y="9.43307" width="3.09467" height="745.394" transform="rotate(34.857 439.559 9.43307)" fill="#5F85B1" fill-opacity="0.41"/>
<rect x="656.257" y="160.362" width="3.09467" height="745.394" transform="rotate(34.857 656.257 160.362)" fill="#5F85B1" fill-opacity="0.41"/>
<rect x="547.908" y="84.8976" width="3.09467" height="745.394" transform="rotate(34.857 547.908 84.8976)" fill="#5F85B1" fill-opacity="0.41"/>
<rect x="764.606" y="235.827" width="3.09467" height="745.394" transform="rotate(34.857 764.606 235.827)" fill="#5F85B1" fill-opacity="0.41"/>
<rect x="493.733" y="47.1654" width="3.09467" height="745.394" transform="rotate(34.857 493.733 47.1654)" fill="#5F85B1" fill-opacity="0.41"/>
<rect x="710.432" y="198.094" width="3.09467" height="745.394" transform="rotate(34.857 710.432 198.094)" fill="#5F85B1" fill-opacity="0.41"/>
<rect x="602.082" y="122.63" width="3.09467" height="745.394" transform="rotate(34.857 602.082 122.63)" fill="#5F85B1" fill-opacity="0.41"/>
<rect x="818.781" y="273.559" width="3.09467" height="745.394" transform="rotate(34.857 818.781 273.559)" fill="#5F85B1" fill-opacity="0.41"/>
<rect x="466.646" y="28.2992" width="3.09467" height="745.394" transform="rotate(34.857 466.646 28.2992)" fill="#5F85B1" fill-opacity="0.41"/>
<rect x="683.344" y="179.228" width="3.09467" height="745.394" transform="rotate(34.857 683.344 179.228)" fill="#5F85B1" fill-opacity="0.41"/>
<rect x="574.995" y="103.764" width="3.09467" height="745.394" transform="rotate(34.857 574.995 103.764)" fill="#5F85B1" fill-opacity="0.41"/>
<rect x="791.693" y="254.693" width="3.09467" height="745.394" transform="rotate(34.857 791.693 254.693)" fill="#5F85B1" fill-opacity="0.41"/>
<rect x="520.821" y="66.0315" width="3.09467" height="745.394" transform="rotate(34.857 520.821 66.0315)" fill="#5F85B1" fill-opacity="0.41"/>
<rect x="737.519" y="216.961" width="3.09467" height="745.394" transform="rotate(34.857 737.519 216.961)" fill="#5F85B1" fill-opacity="0.41"/>
<rect x="629.17" y="141.496" width="3.09467" height="745.394" transform="rotate(34.857 629.17 141.496)" fill="#5F85B1" fill-opacity="0.41"/>
<rect x="845.868" y="292.425" width="3.09467" height="745.394" transform="rotate(34.857 845.868 292.425)" fill="#5F85B1" fill-opacity="0.41"/>
<rect x="432.787" y="4.71652" width="3.09467" height="745.394" transform="rotate(34.857 432.787 4.71652)" fill="#5F85B1" fill-opacity="0.41"/>
<rect x="649.485" y="155.646" width="3.09467" height="745.394" transform="rotate(34.857 649.485 155.646)" fill="#5F85B1" fill-opacity="0.41"/>
<rect x="541.136" y="80.1811" width="3.09467" height="745.394" transform="rotate(34.857 541.136 80.1811)" fill="#5F85B1" fill-opacity="0.41"/>
<rect x="757.834" y="231.11" width="3.09467" height="745.394" transform="rotate(34.857 757.834 231.11)" fill="#5F85B1" fill-opacity="0.41"/>
<rect x="486.962" y="42.4488" width="3.09467" height="745.394" transform="rotate(34.857 486.962 42.4488)" fill="#5F85B1" fill-opacity="0.41"/>
<rect x="703.66" y="193.378" width="3.09467" height="745.394" transform="rotate(34.857 703.66 193.378)" fill="#5F85B1" fill-opacity="0.41"/>
<rect x="595.311" y="117.913" width="3.09467" height="745.394" transform="rotate(34.857 595.311 117.913)" fill="#5F85B1" fill-opacity="0.41"/>
<rect x="812.009" y="268.842" width="3.09467" height="745.394" transform="rotate(34.857 812.009 268.842)" fill="#5F85B1" fill-opacity="0.41"/>
<rect x="459.874" y="23.5827" width="3.09467" height="745.394" transform="rotate(34.857 459.874 23.5827)" fill="#5F85B1" fill-opacity="0.41"/>
<rect x="676.572" y="174.512" width="3.09467" height="745.394" transform="rotate(34.857 676.572 174.512)" fill="#5F85B1" fill-opacity="0.41"/>
<rect x="568.223" y="99.0473" width="3.09467" height="745.394" transform="rotate(34.857 568.223 99.0473)" fill="#5F85B1" fill-opacity="0.41"/>
<rect x="784.921" y="249.976" width="3.09467" height="745.394" transform="rotate(34.857 784.921 249.976)" fill="#5F85B1" fill-opacity="0.41"/>
<rect x="514.049" y="61.315" width="3.09467" height="745.394" transform="rotate(34.857 514.049 61.315)" fill="#5F85B1" fill-opacity="0.41"/>
<rect x="730.747" y="212.244" width="3.09467" height="745.394" transform="rotate(34.857 730.747 212.244)" fill="#5F85B1" fill-opacity="0.41"/>
<rect x="622.398" y="136.779" width="3.09467" height="745.394" transform="rotate(34.857 622.398 136.779)" fill="#5F85B1" fill-opacity="0.41"/>
<rect x="839.096" y="287.708" width="3.09467" height="745.394" transform="rotate(34.857 839.096 287.708)" fill="#5F85B1" fill-opacity="0.41"/>
<rect x="446.331" y="14.1495" width="3.09467" height="745.394" transform="rotate(34.857 446.331 14.1495)" fill="#5F85B1" fill-opacity="0.41"/>
<rect x="663.029" y="165.079" width="3.09467" height="745.394" transform="rotate(34.857 663.029 165.079)" fill="#5F85B1" fill-opacity="0.41"/>
<rect x="554.68" y="89.6142" width="3.09467" height="745.394" transform="rotate(34.857 554.68 89.6142)" fill="#5F85B1" fill-opacity="0.41"/>
<rect x="771.378" y="240.543" width="3.09467" height="745.394" transform="rotate(34.857 771.378 240.543)" fill="#5F85B1" fill-opacity="0.41"/>
<rect x="500.505" y="51.8819" width="3.09467" height="745.394" transform="rotate(34.857 500.505 51.8819)" fill="#5F85B1" fill-opacity="0.41"/>
<rect x="717.203" y="202.811" width="3.09467" height="745.394" transform="rotate(34.857 717.203 202.811)" fill="#5F85B1" fill-opacity="0.41"/>
<rect x="608.854" y="127.346" width="3.09467" height="745.394" transform="rotate(34.857 608.854 127.346)" fill="#5F85B1" fill-opacity="0.41"/>
<rect x="825.552" y="278.276" width="3.09467" height="745.394" transform="rotate(34.857 825.552 278.276)" fill="#5F85B1" fill-opacity="0.41"/>
<rect x="473.418" y="33.0157" width="3.09467" height="745.394" transform="rotate(34.857 473.418 33.0157)" fill="#5F85B1" fill-opacity="0.41"/>
<rect x="690.116" y="183.945" width="3.09467" height="745.394" transform="rotate(34.857 690.116 183.945)" fill="#5F85B1" fill-opacity="0.41"/>
<rect x="581.767" y="108.48" width="3.09467" height="745.394" transform="rotate(34.857 581.767 108.48)" fill="#5F85B1" fill-opacity="0.41"/>
<rect x="798.465" y="259.409" width="3.09467" height="745.394" transform="rotate(34.857 798.465 259.409)" fill="#5F85B1" fill-opacity="0.41"/>
<rect x="527.593" y="70.748" width="3.09467" height="745.394" transform="rotate(34.857 527.593 70.748)" fill="#5F85B1" fill-opacity="0.41"/>
<rect x="744.291" y="221.677" width="3.09467" height="745.394" transform="rotate(34.857 744.291 221.677)" fill="#5F85B1" fill-opacity="0.41"/>
<rect x="635.942" y="146.213" width="3.09467" height="745.394" transform="rotate(34.857 635.942 146.213)" fill="#5F85B1" fill-opacity="0.41"/>
<rect x="852.64" y="297.142" width="3.09467" height="745.394" transform="rotate(34.857 852.64 297.142)" fill="#5F85B1" fill-opacity="0.41"/>
</svg>
